<svg width="44" height="37" viewBox="0 0 44 37" fill="none" xmlns="http://www.w3.org/2000/svg">
<path d="M14.7438 17H29.2562C31.0713 17 32 16.0727 32 14.2439V5.8298C32 4.0096 31.0713 3.07374 29.2562 3.07374H27.1203V2.39545C27.1203 0.772727 26.2592 0 24.6636 0H19.328C17.8084 0 16.8797 0.772727 16.8797 2.39545V3.07374H14.7438C12.9371 3.07374 12 4.0096 12 5.8298V14.2439C12 16.0727 12.9371 17 14.7438 17ZM18.4247 2.32677C18.4247 1.75152 18.7623 1.42525 19.3533 1.42525H24.6467C25.2377 1.42525 25.5669 1.75152 25.5669 2.32677V3.07374H18.4247V2.32677ZM14.8113 15.3515C14.0768 15.3515 13.68 14.9737 13.68 14.1924V5.88131C13.68 5.10859 14.0768 4.72222 14.8113 4.72222H29.1887C29.9232 4.72222 30.32 5.10859 30.32 5.88131V14.1924C30.32 14.9737 29.9232 15.3515 29.1887 15.3515H14.8113ZM17.9097 10.801C17.9097 11.3076 18.2558 11.651 18.7539 11.651H20.4171V13.3424C20.4171 13.849 20.7463 14.1924 21.2444 14.1924H22.7472C23.2453 14.1924 23.5829 13.849 23.5829 13.3424V11.651H25.2461C25.7442 11.651 26.0819 11.3076 26.0819 10.801V9.27273C26.0819 8.76616 25.7442 8.43131 25.2461 8.43131H23.5829V6.7399C23.5829 6.23333 23.2453 5.8899 22.7472 5.8899H21.2444C20.7463 5.8899 20.4171 6.23333 20.4171 6.7399V8.43131H18.7539C18.2474 8.43131 17.9097 8.76616 17.9097 9.27273V10.801Z" fill="#818181"/>
<path d="M8.892 24.088V34.936H9.84V24.088H8.892ZM7.176 28.456V29.296H9.264V28.456H7.176ZM6.528 24.316V34.396H7.464V24.316H6.528ZM2.832 25.768V27.016C2.832 29.224 2.04 31.072 0.48 31.936L1.092 32.704C2.76 31.708 3.612 29.62 3.612 27.016V25.768H2.832ZM3.012 25.768V27.016C3.012 29.404 3.876 31.408 5.532 32.32L6.12 31.552C4.596 30.772 3.792 29.008 3.792 27.016V25.768H3.012ZM0.732 25.36V26.188H5.772V25.36H0.732ZM18.8031 24.088V30.484H19.7991V24.088H18.8031ZM19.3791 26.86V27.688H21.3831V26.86H19.3791ZM12.7791 30.976V31.684H18.8271V32.512H12.8031V34.324H13.7751V33.172H19.7991V30.976H12.7791ZM12.8031 34.108V34.816H20.2191V34.108H12.8031ZM14.2311 28.54V29.92H15.2271V28.54H14.2311ZM11.4471 30.244C13.3431 30.244 15.9231 30.232 18.2391 29.824L18.1551 29.188C15.9231 29.5 13.2591 29.512 11.3271 29.512L11.4471 30.244ZM11.6031 24.916V25.624H17.8311V24.916H11.6031ZM14.7231 25.96C13.1751 25.96 12.1911 26.488 12.1911 27.388C12.1911 28.288 13.1751 28.816 14.7231 28.816C16.2591 28.816 17.2431 28.288 17.2431 27.388C17.2431 26.488 16.2591 25.96 14.7231 25.96ZM14.7231 26.62C15.6951 26.62 16.3071 26.908 16.3071 27.388C16.3071 27.868 15.6951 28.168 14.7231 28.168C13.7511 28.168 13.1271 27.868 13.1271 27.388C13.1271 26.908 13.7511 26.62 14.7231 26.62ZM14.2311 23.98V25.288H15.2271V23.98H14.2311ZM30.0821 24.088V34.936H31.0781V24.088H30.0821ZM25.1981 26.668V27.592C25.1981 29.488 23.9981 31.336 22.3901 32.08L22.9541 32.848C24.6941 32.008 26.0021 29.908 26.0021 27.592V26.668H25.1981ZM25.3901 26.668V27.592C25.3901 29.836 26.7221 31.864 28.4741 32.656L29.0381 31.876C27.4181 31.168 26.1821 29.404 26.1821 27.592V26.668H25.3901ZM22.6901 25.972V26.776H28.6661V25.972H22.6901ZM25.1981 24.28V26.416H26.1941V24.28H25.1981ZM35.7332 30.448V33.112H36.7172V30.448H35.7332ZM39.2012 30.424V33.1H40.1732V30.424H39.2012ZM32.9972 32.776V33.604H42.8252V32.776H32.9972ZM34.1852 24.892V25.696H40.6292V27.376H34.2212V30.352H35.2052V28.168H41.6132V24.892H34.1852ZM34.2212 29.908V30.724H41.8652V29.908H34.2212Z" fill="#818181"/>
</svg>
