<svg width="20" height="21" viewBox="0 0 20 21" fill="none" xmlns="http://www.w3.org/2000/svg">
<path d="M5.69983 20.1222C6.20245 20.1222 6.57611 19.8761 7.20172 19.3267L10.2927 16.5901H15.7585C18.4771 16.5901 20 15.0286 20 12.3487V5.34546C20 2.6655 18.4771 1.104 15.7585 1.104H4.23983C1.52285 1.104 0 2.6581 0 5.34546V12.3487C0 15.036 1.56023 16.5901 4.18295 16.5901H4.55463V18.8161C4.55463 19.6138 4.97345 20.1222 5.69983 20.1222ZM6.13833 18.1333V15.5552C6.13833 15.0253 5.91131 14.821 5.40418 14.821H4.29022C2.58315 14.821 1.76917 13.9526 1.76917 12.2926V5.39423C1.76917 3.73412 2.58315 2.87318 4.29022 2.87318H15.7098C17.4094 2.87318 18.2308 3.73412 18.2308 5.39423V12.2926C18.2308 13.9526 17.4094 14.821 15.7098 14.821H10.1963C9.64835 14.821 9.38736 14.9095 9.00523 15.2958L6.13833 18.1333Z" fill="#8EDDFF"/>
<path d="M5.40476 6.47065H14.5049C14.8149 6.47065 15.0602 6.22051 15.0602 5.90627C15.0602 5.6052 14.8149 5.35254 14.5049 5.35254H5.40476C5.09792 5.35254 4.84851 5.6052 4.84851 5.90627C4.84851 6.22051 5.09955 6.47065 5.40476 6.47065ZM5.40476 9.35112H14.5049C14.8149 9.35112 15.0602 9.09352 15.0602 8.77928C15.0602 8.47822 14.8149 8.22393 14.5049 8.22393H5.40476C5.09792 8.22393 4.84851 8.47983 4.84851 8.77928C4.84851 9.09352 5.09955 9.35112 5.40476 9.35112ZM5.40476 12.2241H11.3339C11.6441 12.2241 11.8861 11.974 11.8861 11.6672C11.8861 11.3513 11.6441 11.097 11.3339 11.097H5.40476C5.09792 11.097 4.84851 11.3529 4.84851 11.6672C4.84851 11.974 5.09955 12.2241 5.40476 12.2241Z" fill="#8EDDFF"/>
</svg>
