<svg width="186" height="88" viewBox="0 0 186 88" fill="none" xmlns="http://www.w3.org/2000/svg">
<path d="M33.7818 7.216V36.848H37.8458V7.216H33.7818ZM30.2298 18.512V21.936H35.1258V18.512H30.2298ZM27.2858 7.664V35.504H31.2858V7.664H27.2858ZM13.2057 10.256V29.456H24.9178V10.256H13.2057ZM20.9498 13.584V26.128H17.1738V13.584H20.9498ZM49.0433 12.208V13.296C49.0433 16.656 46.9313 20.112 42.0673 21.488L44.0513 24.784C49.8113 23.184 52.5313 18.512 52.5313 13.296V12.208H49.0433ZM49.8433 12.208V13.296C49.8433 18.256 52.6273 22.672 58.3873 24.176L60.3073 20.848C55.4753 19.6 53.2993 16.4 53.2993 13.296V12.208H49.8433ZM43.0593 10.32V13.648H59.2513V10.32H43.0593ZM49.0433 7.28V11.792H53.2993V7.28H49.0433ZM62.1633 7.248V25.072H66.4513V7.248H62.1633ZM56.4033 25.584C50.1313 25.584 46.2913 27.664 46.2913 31.216C46.2913 34.8 50.1313 36.848 56.4033 36.848C62.6753 36.848 66.5793 34.8 66.5793 31.216C66.5793 27.664 62.6753 25.584 56.4033 25.584ZM56.4033 28.848C60.2753 28.848 62.3233 29.616 62.3233 31.216C62.3233 32.848 60.2753 33.616 56.4033 33.616C52.5633 33.616 50.5473 32.848 50.5473 31.216C50.5473 29.616 52.5633 28.848 56.4033 28.848ZM85.4813 22.256V30.576H89.7053V22.256H85.4813ZM96.2333 22.256V30.576H100.489V22.256H96.2333ZM79.5933 29.968V33.424H106.409V29.968H79.5933ZM92.9693 8.656C86.5693 8.656 81.8973 11.792 81.8973 16.624C81.8973 21.456 86.5693 24.56 92.9693 24.56C99.3373 24.56 104.041 21.456 104.041 16.624C104.041 11.792 99.3373 8.656 92.9693 8.656ZM92.9693 11.984C97.0972 11.984 99.8493 13.68 99.8493 16.624C99.8493 19.536 97.0972 21.264 92.9693 21.264C88.8413 21.264 86.0893 19.536 86.0893 16.624C86.0893 13.68 88.8413 11.984 92.9693 11.984ZM115.655 12.4V13.488C115.655 16.848 113.575 20.24 108.807 21.584L110.791 24.912C116.455 23.28 119.079 18.64 119.079 13.488V12.4H115.655ZM116.455 12.4V13.488C116.455 18.352 119.175 22.672 124.871 24.176L126.791 20.88C122.023 19.632 119.911 16.528 119.911 13.488V12.4H116.455ZM109.831 10.288V13.616H125.735V10.288H109.831ZM115.655 7.12V11.6H119.911V7.12H115.655ZM124.903 15.12V18.544H130.567V15.12H124.903ZM129.543 7.216V25.104H133.799V7.216H129.543ZM123.751 25.616C117.479 25.616 113.607 27.664 113.607 31.216C113.607 34.768 117.479 36.848 123.751 36.848C130.023 36.848 133.895 34.768 133.895 31.216C133.895 27.664 130.023 25.616 123.751 25.616ZM123.751 28.848C127.655 28.848 129.671 29.616 129.671 31.216C129.671 32.816 127.655 33.616 123.751 33.616C119.879 33.616 117.863 32.816 117.863 31.216C117.863 29.616 119.879 28.848 123.751 28.848ZM151.844 7.632C145.06 7.632 141.124 9.424 141.124 12.688C141.124 15.952 145.06 17.744 151.844 17.744C158.596 17.744 162.564 15.952 162.564 12.688C162.564 9.424 158.596 7.632 151.844 7.632ZM151.844 10.736C156.132 10.736 158.148 11.376 158.148 12.688C158.148 14.064 156.132 14.64 151.844 14.64C147.556 14.64 145.54 14.064 145.54 12.688C145.54 11.376 147.556 10.736 151.844 10.736ZM138.436 19.12V22.48H165.22V19.12H138.436ZM141.508 24.144V27.312H157.796V28.816H141.54V34.384H145.732V31.76H161.988V24.144H141.508ZM141.54 33.456V36.656H162.756V33.456H141.54ZM17.3551 58.864V62.288H24.2671V58.864H17.3551ZM22.0271 51.248V72.848H26.2831V51.248H22.0271ZM6.73113 76.944V80.336H26.9551V76.944H6.73113ZM6.73113 71.024V78.96H10.9871V71.024H6.73113ZM8.33113 55.12V56.976C8.33113 60.72 6.21913 64.592 1.32313 66.192L3.46713 69.584C9.16313 67.696 11.7871 62.544 11.7871 56.976V55.12H8.33113ZM9.22713 55.12V56.976C9.22713 62.256 11.7551 67.184 17.2591 69.008L19.3391 65.68C14.6671 64.112 12.6511 60.432 12.6511 56.976V55.12H9.22713ZM2.47513 53.232V56.592H18.4111V53.232H2.47513ZM31.9446 61.968V65.296H34.4086C40.7446 65.296 44.3286 65.168 48.1366 64.304L47.6886 61.008C43.9446 61.776 40.5846 61.968 34.4086 61.968H31.9446ZM31.9446 52.752V63.824H36.1686V56.08H45.1926V52.752H31.9446ZM49.9926 51.216V65.936H54.2486V51.216H49.9926ZM53.0646 56.784V60.24H58.1846V56.784H53.0646ZM34.6646 67.152V70.48H50.0566V72.208H34.7286V78.896H38.9526V75.344H54.2486V67.152H34.6646ZM34.7286 77.168V80.528H55.1126V77.168H34.7286ZM81.5741 51.248V69.456H85.6061V51.248H81.5741ZM77.9581 58.8V62.224H82.6941V58.8H77.9581ZM75.4621 51.632V69.168H79.4301V51.632H75.4621ZM60.2301 54.064V57.36H74.5981V54.064H60.2301ZM67.4621 58.256C63.7501 58.256 61.0621 60.368 61.0621 63.44C61.0621 66.512 63.7501 68.624 67.4621 68.624C71.1741 68.624 73.8621 66.512 73.8621 63.44C73.8621 60.368 71.1741 58.256 67.4621 58.256ZM67.4621 61.328C68.9981 61.328 70.0541 62.064 70.0541 63.44C70.0541 64.816 68.9981 65.584 67.4621 65.584C65.8941 65.584 64.8381 64.816 64.8381 63.44C64.8381 62.064 65.8941 61.328 67.4621 61.328ZM65.3181 51.408V56.4H69.5101V51.408H65.3181ZM67.4941 70.416V70.992C67.4941 73.584 65.8301 76.24 62.0221 77.36L63.9741 80.496C68.6461 78.992 70.6941 75.184 70.6941 70.992V70.416H67.4941ZM68.6141 70.416V70.992C68.6141 75.056 70.3101 79.184 74.9181 80.784L76.6141 77.648C73.0621 76.336 71.6541 73.616 71.6541 70.992V70.416H68.6141ZM78.1821 70.416V70.992C78.1821 73.392 76.7101 76.208 73.2541 77.648L74.9181 80.784C79.4941 79.12 81.2221 74.8 81.2221 70.992V70.416H78.1821ZM79.2381 70.416V70.992C79.2381 75.344 81.1901 79.056 85.9261 80.496L87.9101 77.36C84.0381 76.336 82.4061 73.744 82.4061 70.992V70.416H79.2381ZM92.9316 68.976V80.528H113.22V68.976H108.996V71.472H97.1236V68.976H92.9316ZM97.1236 74.64H108.996V77.2H97.1236V74.64ZM89.7956 64.144V67.504H116.58V64.144H89.7956ZM101.028 51.536V52.432C101.028 55.44 97.7956 58.736 91.1076 59.536L92.6116 62.832C100.26 61.84 104.676 57.584 104.676 52.432V51.536H101.028ZM101.732 51.536V52.432C101.732 57.552 106.116 61.84 113.764 62.832L115.268 59.536C108.612 58.736 105.38 55.408 105.38 52.432V51.536H101.732ZM139.745 51.216V80.848H144.001V51.216H139.745ZM120.801 54.032V72.432H125.025V54.032H120.801ZM120.801 69.936V73.552H123.425C127.937 73.552 132.833 73.232 137.921 72.176L137.441 68.656C132.545 69.616 127.745 69.936 123.425 69.936H120.801ZM167.615 51.184V80.912H171.903V51.184H167.615ZM170.943 62.16V65.648H176.191V62.16H170.943ZM149.823 70.256V73.776H152.319C157.471 73.776 161.535 73.648 166.015 72.848L165.599 69.328C161.247 70.096 157.311 70.256 152.319 70.256H149.823ZM149.823 53.936V71.952H154.047V57.36H163.647V53.936H149.823ZM182.844 70.864H179.772L178.972 55.152H183.644L182.844 70.864ZM178.844 75.952C178.844 75.056 179.079 74.4267 179.548 74.064C180.017 73.68 180.604 73.488 181.308 73.488C181.969 73.488 182.535 73.6693 183.004 74.032C183.495 74.3947 183.74 75.0347 183.74 75.952C183.74 76.8267 183.495 77.456 183.004 77.84C182.535 78.224 181.969 78.416 181.308 78.416C180.604 78.416 180.017 78.224 179.548 77.84C179.079 77.456 178.844 76.8267 178.844 75.952Z" fill="#011E5F"/>
</svg>
