<svg width="183" height="74" viewBox="0 0 183 74" fill="none" xmlns="http://www.w3.org/2000/svg">
<path d="M32.7818 0.216V29.848H36.8458V0.216H32.7818ZM29.2298 11.512V14.936H34.1258V11.512H29.2298ZM26.2858 0.664V28.504H30.2858V0.664H26.2858ZM12.2057 3.256V22.456H23.9178V3.256H12.2057ZM19.9498 6.584V19.128H16.1738V6.584H19.9498ZM48.0433 5.208V6.296C48.0433 9.656 45.9313 13.112 41.0673 14.488L43.0513 17.784C48.8113 16.184 51.5313 11.512 51.5313 6.296V5.208H48.0433ZM48.8433 5.208V6.296C48.8433 11.256 51.6273 15.672 57.3873 17.176L59.3073 13.848C54.4753 12.6 52.2993 9.4 52.2993 6.296V5.208H48.8433ZM42.0593 3.32V6.648H58.2513V3.32H42.0593ZM48.0433 0.279999V4.792H52.2993V0.279999H48.0433ZM61.1633 0.247999V18.072H65.4513V0.247999H61.1633ZM55.4033 18.584C49.1313 18.584 45.2913 20.664 45.2913 24.216C45.2913 27.8 49.1313 29.848 55.4033 29.848C61.6753 29.848 65.5793 27.8 65.5793 24.216C65.5793 20.664 61.6753 18.584 55.4033 18.584ZM55.4033 21.848C59.2753 21.848 61.3233 22.616 61.3233 24.216C61.3233 25.848 59.2753 26.616 55.4033 26.616C51.5633 26.616 49.5473 25.848 49.5473 24.216C49.5473 22.616 51.5633 21.848 55.4033 21.848ZM84.4813 15.256V23.576H88.7053V15.256H84.4813ZM95.2333 15.256V23.576H99.4893V15.256H95.2333ZM78.5933 22.968V26.424H105.409V22.968H78.5933ZM91.9693 1.656C85.5693 1.656 80.8973 4.792 80.8973 9.624C80.8973 14.456 85.5693 17.56 91.9693 17.56C98.3373 17.56 103.041 14.456 103.041 9.624C103.041 4.792 98.3373 1.656 91.9693 1.656ZM91.9693 4.984C96.0972 4.984 98.8493 6.68 98.8493 9.624C98.8493 12.536 96.0972 14.264 91.9693 14.264C87.8413 14.264 85.0893 12.536 85.0893 9.624C85.0893 6.68 87.8413 4.984 91.9693 4.984ZM114.655 5.4V6.488C114.655 9.848 112.575 13.24 107.807 14.584L109.791 17.912C115.455 16.28 118.079 11.64 118.079 6.488V5.4H114.655ZM115.455 5.4V6.488C115.455 11.352 118.175 15.672 123.871 17.176L125.791 13.88C121.023 12.632 118.911 9.528 118.911 6.488V5.4H115.455ZM108.831 3.288V6.616H124.735V3.288H108.831ZM114.655 0.119999V4.6H118.911V0.119999H114.655ZM123.903 8.12V11.544H129.567V8.12H123.903ZM128.543 0.216V18.104H132.799V0.216H128.543ZM122.751 18.616C116.479 18.616 112.607 20.664 112.607 24.216C112.607 27.768 116.479 29.848 122.751 29.848C129.023 29.848 132.895 27.768 132.895 24.216C132.895 20.664 129.023 18.616 122.751 18.616ZM122.751 21.848C126.655 21.848 128.671 22.616 128.671 24.216C128.671 25.816 126.655 26.616 122.751 26.616C118.879 26.616 116.863 25.816 116.863 24.216C116.863 22.616 118.879 21.848 122.751 21.848ZM150.844 0.631998C144.06 0.631998 140.124 2.424 140.124 5.688C140.124 8.952 144.06 10.744 150.844 10.744C157.596 10.744 161.564 8.952 161.564 5.688C161.564 2.424 157.596 0.631998 150.844 0.631998ZM150.844 3.736C155.132 3.736 157.148 4.376 157.148 5.688C157.148 7.064 155.132 7.64 150.844 7.64C146.556 7.64 144.54 7.064 144.54 5.688C144.54 4.376 146.556 3.736 150.844 3.736ZM137.436 12.12V15.48H164.22V12.12H137.436ZM140.508 17.144V20.312H156.796V21.816H140.54V27.384H144.732V24.76H160.988V17.144H140.508ZM140.54 26.456V29.656H161.756V26.456H140.54ZM16.3551 51.864V55.288H23.2671V51.864H16.3551ZM21.0271 44.248V65.848H25.2831V44.248H21.0271ZM5.73113 69.944V73.336H25.9551V69.944H5.73113ZM5.73113 64.024V71.96H9.98713V64.024H5.73113ZM7.33113 48.12V49.976C7.33113 53.72 5.21913 57.592 0.323125 59.192L2.46713 62.584C8.16313 60.696 10.7871 55.544 10.7871 49.976V48.12H7.33113ZM8.22713 48.12V49.976C8.22713 55.256 10.7551 60.184 16.2591 62.008L18.3391 58.68C13.6671 57.112 11.6511 53.432 11.6511 49.976V48.12H8.22713ZM1.47513 46.232V49.592H17.4111V46.232H1.47513ZM30.9446 54.968V58.296H33.4086C39.7446 58.296 43.3286 58.168 47.1366 57.304L46.6886 54.008C42.9446 54.776 39.5846 54.968 33.4086 54.968H30.9446ZM30.9446 45.752V56.824H35.1686V49.08H44.1926V45.752H30.9446ZM48.9926 44.216V58.936H53.2486V44.216H48.9926ZM52.0646 49.784V53.24H57.1846V49.784H52.0646ZM33.6646 60.152V63.48H49.0566V65.208H33.7286V71.896H37.9526V68.344H53.2486V60.152H33.6646ZM33.7286 70.168V73.528H54.1126V70.168H33.7286ZM80.5741 44.248V62.456H84.6061V44.248H80.5741ZM76.9581 51.8V55.224H81.6941V51.8H76.9581ZM74.4621 44.632V62.168H78.4301V44.632H74.4621ZM59.2301 47.064V50.36H73.5981V47.064H59.2301ZM66.4621 51.256C62.7501 51.256 60.0621 53.368 60.0621 56.44C60.0621 59.512 62.7501 61.624 66.4621 61.624C70.1741 61.624 72.8621 59.512 72.8621 56.44C72.8621 53.368 70.1741 51.256 66.4621 51.256ZM66.4621 54.328C67.9981 54.328 69.0541 55.064 69.0541 56.44C69.0541 57.816 67.9981 58.584 66.4621 58.584C64.8941 58.584 63.8381 57.816 63.8381 56.44C63.8381 55.064 64.8941 54.328 66.4621 54.328ZM64.3181 44.408V49.4H68.5101V44.408H64.3181ZM66.4941 63.416V63.992C66.4941 66.584 64.8301 69.24 61.0221 70.36L62.9741 73.496C67.6461 71.992 69.6941 68.184 69.6941 63.992V63.416H66.4941ZM67.6141 63.416V63.992C67.6141 68.056 69.3101 72.184 73.9181 73.784L75.6141 70.648C72.0621 69.336 70.6541 66.616 70.6541 63.992V63.416H67.6141ZM77.1821 63.416V63.992C77.1821 66.392 75.7101 69.208 72.2541 70.648L73.9181 73.784C78.4941 72.12 80.2221 67.8 80.2221 63.992V63.416H77.1821ZM78.2381 63.416V63.992C78.2381 68.344 80.1901 72.056 84.9261 73.496L86.9101 70.36C83.0381 69.336 81.4061 66.744 81.4061 63.992V63.416H78.2381ZM91.9316 61.976V73.528H112.22V61.976H107.996V64.472H96.1236V61.976H91.9316ZM96.1236 67.64H107.996V70.2H96.1236V67.64ZM88.7956 57.144V60.504H115.58V57.144H88.7956ZM100.028 44.536V45.432C100.028 48.44 96.7956 51.736 90.1076 52.536L91.6116 55.832C99.2596 54.84 103.676 50.584 103.676 45.432V44.536H100.028ZM100.732 44.536V45.432C100.732 50.552 105.116 54.84 112.764 55.832L114.268 52.536C107.612 51.736 104.38 48.408 104.38 45.432V44.536H100.732ZM138.745 44.216V73.848H143.001V44.216H138.745ZM119.801 47.032V65.432H124.025V47.032H119.801ZM119.801 62.936V66.552H122.425C126.937 66.552 131.833 66.232 136.921 65.176L136.441 61.656C131.545 62.616 126.745 62.936 122.425 62.936H119.801ZM166.615 44.184V73.912H170.903V44.184H166.615ZM169.943 55.16V58.648H175.191V55.16H169.943ZM148.823 63.256V66.776H151.319C156.471 66.776 160.535 66.648 165.015 65.848L164.599 62.328C160.247 63.096 156.311 63.256 151.319 63.256H148.823ZM148.823 46.936V64.952H153.047V50.36H162.647V46.936H148.823ZM181.844 63.864H178.772L177.972 48.152H182.644L181.844 63.864ZM177.844 68.952C177.844 68.056 178.079 67.4267 178.548 67.064C179.017 66.68 179.604 66.488 180.308 66.488C180.969 66.488 181.535 66.6693 182.004 67.032C182.495 67.3947 182.74 68.0347 182.74 68.952C182.74 69.8267 182.495 70.456 182.004 70.84C181.535 71.224 180.969 71.416 180.308 71.416C179.604 71.416 179.017 71.224 178.548 70.84C178.079 70.456 177.844 69.8267 177.844 68.952Z" fill="#011E5F"/>
</svg>
