<svg width="107" height="56" viewBox="0 0 107 56" fill="none" xmlns="http://www.w3.org/2000/svg">
<path d="M20.56 45H14.6V16.44H30.96V21.4H20.56V28.76H30.24V33.72H20.56V45ZM46.8331 23.16V45H40.8731V23.16H46.8331ZM43.8731 14.6C44.7531 14.6 45.5131 14.8133 46.1531 15.24C46.7931 15.64 47.1131 16.4 47.1131 17.52C47.1131 18.6133 46.7931 19.3733 46.1531 19.8C45.5131 20.2267 44.7531 20.44 43.8731 20.44C42.9665 20.44 42.1931 20.2267 41.5531 19.8C40.9398 19.3733 40.6331 18.6133 40.6331 17.52C40.6331 16.4 40.9398 15.64 41.5531 15.24C42.1931 14.8133 42.9665 14.6 43.8731 14.6ZM67.0606 40.64C67.7273 40.64 68.3673 40.5733 68.9806 40.44C69.594 40.3067 70.2073 40.1467 70.8206 39.96V44.4C70.1806 44.6667 69.3806 44.8933 68.4206 45.08C67.4873 45.2933 66.4606 45.4 65.3406 45.4C64.034 45.4 62.8606 45.1867 61.8206 44.76C60.8073 44.3333 59.994 43.6 59.3806 42.56C58.794 41.4933 58.5006 40.0267 58.5006 38.16V27.64H55.6606V25.12L58.9406 23.12L60.6606 18.52H64.4606V23.16H70.5806V27.64H64.4606V38.16C64.4606 38.9867 64.7006 39.6133 65.1806 40.04C65.6606 40.44 66.2873 40.64 67.0606 40.64ZM78.0844 36.72V31.84H88.5644V36.72H78.0844ZM103.655 23.16V45H97.695V23.16H103.655ZM100.695 14.6C101.575 14.6 102.335 14.8133 102.975 15.24C103.615 15.64 103.935 16.4 103.935 17.52C103.935 18.6133 103.615 19.3733 102.975 19.8C102.335 20.2267 101.575 20.44 100.695 20.44C99.7883 20.44 99.015 20.2267 98.375 19.8C97.7617 19.3733 97.455 18.6133 97.455 17.52C97.455 16.4 97.7617 15.64 98.375 15.24C99.015 14.8133 99.7883 14.6 100.695 14.6Z" fill="#011E5F"/>
<path d="M10.3574 14.463C8.48773 12.9204 -0.640984 6.82063 5.16771 7.43507C6.02192 7.52543 16.1493 8.25397 15.9983 9.25024C15.9944 9.27643 2.67464 12.1579 1.10623 13.2529C0.0610722 13.9826 7.03565 9.26512 8.55228 7.06273C9.87464 5.14246 11.7535 -0.607652 12.783 1.43105C14.4955 4.82218 7.70311 17.623 7.31127 16.9764" stroke="#FF4E4E" stroke-linecap="round"/>
</svg>
