<svg width="20" height="20" viewBox="0 0 20 20" fill="none" xmlns="http://www.w3.org/2000/svg">
<path d="M9.5459 19.0986H11.3301C12.0596 19.0986 12.6309 18.6416 12.8066 17.9385L13.1582 16.4004L13.3867 16.3125L14.7314 17.1475C15.3467 17.5342 16.0762 17.4287 16.5947 16.9102L17.8252 15.6797C18.3525 15.1523 18.4404 14.4316 18.0537 13.8252L17.2188 12.4805L17.3066 12.2695L18.8447 11.9092C19.5391 11.7334 19.9961 11.1621 19.9961 10.4326V8.70117C19.9961 7.97168 19.5479 7.40039 18.8447 7.22461L17.3154 6.85547L17.2275 6.62695L18.0625 5.29102C18.4492 4.68457 18.3613 3.96387 17.834 3.42773L16.6035 2.19727C16.0938 1.67871 15.3643 1.58203 14.749 1.95996L13.4043 2.78613L13.1582 2.69824L12.8066 1.15137C12.6309 0.448242 12.0596 0 11.3301 0H9.5459C8.80762 0 8.23633 0.448242 8.06934 1.15137L7.71777 2.69824L7.47168 2.78613L6.12695 1.95996C5.50293 1.58203 4.78223 1.67871 4.27246 2.19727L3.0332 3.42773C2.51465 3.96387 2.41797 4.68457 2.80469 5.29102L3.63965 6.62695L3.55176 6.85547L2.03125 7.22461C1.32812 7.40039 0.879883 7.97168 0.879883 8.70117V10.4326C0.879883 11.1621 1.33691 11.7334 2.03125 11.9092L3.56934 12.2695L3.64844 12.4805L2.81348 13.8252C2.42676 14.4316 2.52344 15.1523 3.04199 15.6797L4.28125 16.9102C4.79102 17.4287 5.52051 17.5342 6.13574 17.1475L7.48047 16.3125L7.71777 16.4004L8.06934 17.9385C8.23633 18.6416 8.80762 19.0986 9.5459 19.0986ZM9.77441 17.4814C9.625 17.4814 9.5459 17.4199 9.52832 17.2881L9.00098 15.126C8.44727 14.9941 7.91113 14.7656 7.48047 14.4932L5.58203 15.6621C5.46777 15.7324 5.3623 15.7236 5.25684 15.6182L4.33398 14.6953C4.22852 14.5986 4.22852 14.4932 4.29883 14.3789L5.46777 12.4805C5.22168 12.0586 4.99316 11.5312 4.86133 10.9775L2.69043 10.459C2.55859 10.4414 2.48828 10.3623 2.48828 10.2129V8.91211C2.48828 8.75391 2.5498 8.69238 2.69043 8.65723L4.85254 8.14746C4.98438 7.55859 5.23926 7.01367 5.45898 6.61816L4.29004 4.7373C4.21973 4.61426 4.21973 4.50879 4.31641 4.40332L5.24805 3.48926C5.35352 3.39258 5.4502 3.375 5.58203 3.4541L7.46289 4.60547C7.8584 4.35938 8.44727 4.11328 9.00977 3.97266L9.52832 1.81055C9.5459 1.67871 9.625 1.6084 9.77441 1.6084H11.1016C11.251 1.6084 11.3213 1.66992 11.3477 1.81055L11.875 3.98145C12.4463 4.12207 12.9648 4.35938 13.4043 4.60547L15.2852 3.4541C15.417 3.38379 15.5137 3.39258 15.6191 3.49805L16.5508 4.41211C16.6562 4.50879 16.6562 4.61426 16.5771 4.7373L15.417 6.61816C15.6279 7.01367 15.8916 7.55859 16.0234 8.14746L18.1855 8.65723C18.3262 8.69238 18.3789 8.75391 18.3789 8.91211V10.2129C18.3789 10.3623 18.3174 10.4414 18.1855 10.459L16.0146 10.9775C15.8828 11.5312 15.6455 12.0674 15.3994 12.4805L16.5684 14.3701C16.6387 14.4932 16.6387 14.5898 16.5332 14.6865L15.6104 15.6182C15.5049 15.7236 15.3994 15.7324 15.2852 15.6621L13.3955 14.4932C12.9561 14.7656 12.4551 14.9854 11.875 15.126L11.3477 17.2881C11.3213 17.4199 11.251 17.4814 11.1016 17.4814H9.77441ZM10.4424 12.8848C12.2705 12.8848 13.7734 11.3818 13.7734 9.54492C13.7734 7.72559 12.2705 6.22266 10.4424 6.22266C8.60547 6.22266 7.09375 7.72559 7.09375 9.54492C7.09375 11.3818 8.60547 12.8848 10.4424 12.8848ZM10.4424 11.3643C9.44043 11.3643 8.62305 10.5469 8.62305 9.54492C8.62305 8.56055 9.44922 7.74316 10.4424 7.74316C11.418 7.74316 12.2354 8.56055 12.2354 9.54492C12.2354 10.5381 11.418 11.3643 10.4424 11.3643Z" fill="#1C1C1E"/>
</svg>
