<svg width="9" height="16" viewBox="0 0 9 16" fill="none" xmlns="http://www.w3.org/2000/svg">
<path d="M8.99935 7.7959C8.99053 7.48828 8.87595 7.22461 8.63796 6.9873L1.78048 0.298828C1.57775 0.105469 1.33977 0 1.0489 0C0.458341 0 0 0.457031 0 1.0459C0 1.32715 0.114585 1.59082 0.317313 1.79297L6.48729 7.7959L0.317313 13.7988C0.114585 14.001 0 14.2559 0 14.5459C0 15.1348 0.458341 15.5918 1.0489 15.5918C1.33095 15.5918 1.57775 15.4863 1.78048 15.293L8.63796 8.5957C8.88476 8.36719 8.99935 8.10352 8.99935 7.7959Z" fill="#D9D9D9"/>
</svg>
