<svg width="263" height="21" viewBox="0 0 263 21" fill="none" xmlns="http://www.w3.org/2000/svg">
<path d="M0.761364 16V1.45455H5.67614C6.81724 1.45455 7.75 1.66051 8.47443 2.07244C9.2036 2.47964 9.74337 3.03125 10.0938 3.72727C10.4441 4.4233 10.6193 5.19981 10.6193 6.05682C10.6193 6.91383 10.4441 7.69271 10.0938 8.39347C9.74811 9.09422 9.21307 9.65294 8.48864 10.0696C7.7642 10.4815 6.83617 10.6875 5.70455 10.6875H2.18182V9.125H5.64773C6.42898 9.125 7.05634 8.99006 7.52983 8.72017C8.00331 8.45028 8.34659 8.0857 8.55966 7.62642C8.77746 7.16241 8.88636 6.6392 8.88636 6.05682C8.88636 5.47443 8.77746 4.9536 8.55966 4.49432C8.34659 4.03504 8.00095 3.67519 7.52273 3.41477C7.04451 3.14962 6.41004 3.01705 5.61932 3.01705H2.52273V16H0.761364ZM12.6612 3.01705V1.45455H23.5703V3.01705H18.9964V16H17.2351V3.01705H12.6612ZM39.4137 7.53409L37.908 7.96023C37.8133 7.70928 37.6737 7.46544 37.489 7.22869C37.3091 6.98722 37.0629 6.78835 36.7504 6.6321C36.4379 6.47585 36.0378 6.39773 35.5501 6.39773C34.8825 6.39773 34.3261 6.55161 33.881 6.85938C33.4407 7.16241 33.2205 7.5483 33.2205 8.01705C33.2205 8.43371 33.372 8.76278 33.6751 9.00426C33.9781 9.24574 34.4516 9.44697 35.0955 9.60795L36.7148 10.0057C37.6902 10.2424 38.417 10.6046 38.8952 11.0923C39.3735 11.5753 39.6126 12.1979 39.6126 12.9602C39.6126 13.5852 39.4326 14.1439 39.0728 14.6364C38.7177 15.1288 38.2205 15.517 37.5813 15.8011C36.9421 16.0852 36.1987 16.2273 35.3512 16.2273C34.2385 16.2273 33.3176 15.9858 32.5884 15.5028C31.8593 15.0199 31.3976 14.3144 31.2035 13.3864L32.7944 12.9886C32.9459 13.5758 33.2324 14.0161 33.6538 14.3097C34.0799 14.6032 34.6362 14.75 35.3228 14.75C36.104 14.75 36.7243 14.5843 37.1836 14.2528C37.6476 13.9167 37.8796 13.5142 37.8796 13.0455C37.8796 12.6667 37.747 12.3494 37.4819 12.0938C37.2167 11.8333 36.8095 11.6392 36.2603 11.5114L34.4421 11.0852C33.4431 10.8485 32.7092 10.4815 32.2404 9.98438C31.7764 9.48248 31.5444 8.85511 31.5444 8.10227C31.5444 7.48674 31.7172 6.94223 32.0629 6.46875C32.4132 5.99527 32.8891 5.62358 33.4904 5.35369C34.0965 5.08381 34.783 4.94886 35.5501 4.94886C36.6296 4.94886 37.4772 5.18561 38.0927 5.65909C38.7129 6.13258 39.1533 6.75758 39.4137 7.53409ZM46.7095 16.2273C45.6584 16.2273 44.7517 15.9953 43.9893 15.5312C43.2318 15.0625 42.647 14.4091 42.2351 13.571C41.8279 12.7282 41.6243 11.7481 41.6243 10.6307C41.6243 9.51326 41.8279 8.52841 42.2351 7.67614C42.647 6.81913 43.2199 6.15152 43.9538 5.6733C44.6925 5.19034 45.5542 4.94886 46.5391 4.94886C47.1072 4.94886 47.6683 5.04356 48.2223 5.23295C48.7763 5.42235 49.2805 5.73011 49.7351 6.15625C50.1896 6.57765 50.5518 7.13636 50.8217 7.83239C51.0916 8.52841 51.2266 9.38542 51.2266 10.4034V11.1136H42.8175V9.66477H49.522C49.522 9.04924 49.3989 8.5 49.1527 8.01705C48.9112 7.53409 48.5656 7.15294 48.1158 6.87358C47.6707 6.59422 47.1451 6.45455 46.5391 6.45455C45.8714 6.45455 45.2938 6.62026 44.8061 6.9517C44.3232 7.27841 43.9515 7.70455 43.6911 8.23011C43.4306 8.75568 43.3004 9.31913 43.3004 9.92045V10.8864C43.3004 11.7102 43.4425 12.4086 43.7266 12.9815C44.0154 13.5497 44.4155 13.983 44.9268 14.2812C45.4382 14.5748 46.0324 14.7216 46.7095 14.7216C47.1499 14.7216 47.5476 14.66 47.9027 14.5369C48.2625 14.4091 48.5727 14.2197 48.8331 13.9688C49.0935 13.7131 49.2947 13.3958 49.4368 13.017L51.0561 13.4716C50.8857 14.0208 50.5992 14.5038 50.1967 14.9205C49.7943 15.3324 49.2971 15.6544 48.7053 15.8864C48.1134 16.1136 47.4482 16.2273 46.7095 16.2273ZM53.7763 16V5.09091H55.3956V6.73864H55.5092C55.7081 6.19886 56.0679 5.76089 56.5888 5.42472C57.1096 5.08854 57.6967 4.92045 58.3501 4.92045C58.4732 4.92045 58.6271 4.92282 58.8118 4.92756C58.9964 4.93229 59.1361 4.93939 59.2308 4.94886V6.65341C59.174 6.6392 59.0438 6.6179 58.8402 6.58949C58.6413 6.55634 58.4306 6.53977 58.2081 6.53977C57.6778 6.53977 57.2043 6.65104 56.7876 6.87358C56.3757 7.09138 56.049 7.39441 55.8075 7.78267C55.5708 8.16619 55.4524 8.60417 55.4524 9.09659V16H53.7763ZM70.4702 5.09091L66.4361 16H64.7315L60.6974 5.09091H62.5156L65.527 13.7841H65.6406L68.652 5.09091H70.4702ZM72.6825 16V5.09091H74.3587V16H72.6825ZM73.5348 3.27273C73.2081 3.27273 72.9264 3.16146 72.6896 2.93892C72.4576 2.71638 72.3416 2.44886 72.3416 2.13636C72.3416 1.82386 72.4576 1.55634 72.6896 1.33381C72.9264 1.11127 73.2081 1 73.5348 1C73.8615 1 74.1409 1.11127 74.3729 1.33381C74.6096 1.55634 74.728 1.82386 74.728 2.13636C74.728 2.44886 74.6096 2.71638 74.3729 2.93892C74.1409 3.16146 73.8615 3.27273 73.5348 3.27273ZM81.8604 16.2273C80.8377 16.2273 79.957 15.9858 79.2184 15.5028C78.4798 15.0199 77.9116 14.3546 77.5138 13.5071C77.1161 12.6596 76.9173 11.6913 76.9173 10.6023C76.9173 9.49432 77.1209 8.51657 77.5281 7.66903C77.94 6.81676 78.5129 6.15152 79.2468 5.6733C79.9854 5.19034 80.8472 4.94886 81.832 4.94886C82.5991 4.94886 83.2904 5.09091 83.9059 5.375C84.5214 5.65909 85.0257 6.05682 85.4187 6.56818C85.8117 7.07955 86.0555 7.67614 86.1502 8.35795H84.4741C84.3462 7.8608 84.0621 7.42045 83.6218 7.03693C83.1862 6.64867 82.5991 6.45455 81.8604 6.45455C81.207 6.45455 80.6341 6.625 80.1417 6.96591C79.654 7.30208 79.2728 7.77794 78.9982 8.39347C78.7283 9.00426 78.5934 9.72159 78.5934 10.5455C78.5934 11.3883 78.726 12.1222 78.9911 12.7472C79.261 13.3722 79.6398 13.8575 80.1275 14.2031C80.6199 14.5488 81.1976 14.7216 81.8604 14.7216C82.296 14.7216 82.6914 14.6458 83.0465 14.4943C83.4016 14.3428 83.7023 14.125 83.9485 13.8409C84.1947 13.5568 84.3699 13.2159 84.4741 12.8182H86.1502C86.0555 13.4621 85.8211 14.0421 85.4471 14.5582C85.0778 15.0696 84.5877 15.4768 83.9769 15.7798C83.3709 16.0781 82.6654 16.2273 81.8604 16.2273ZM93.1744 16.2273C92.1232 16.2273 91.2165 15.9953 90.4542 15.5312C89.6966 15.0625 89.1119 14.4091 88.6999 13.571C88.2927 12.7282 88.0891 11.7481 88.0891 10.6307C88.0891 9.51326 88.2927 8.52841 88.6999 7.67614C89.1119 6.81913 89.6848 6.15152 90.4187 5.6733C91.1573 5.19034 92.0191 4.94886 93.0039 4.94886C93.5721 4.94886 94.1332 5.04356 94.6871 5.23295C95.2411 5.42235 95.7454 5.73011 96.1999 6.15625C96.6545 6.57765 97.0167 7.13636 97.2866 7.83239C97.5565 8.52841 97.6914 9.38542 97.6914 10.4034V11.1136H89.2823V9.66477H95.9869C95.9869 9.04924 95.8638 8.5 95.6175 8.01705C95.3761 7.53409 95.0304 7.15294 94.5806 6.87358C94.1355 6.59422 93.61 6.45455 93.0039 6.45455C92.3363 6.45455 91.7586 6.62026 91.271 6.9517C90.788 7.27841 90.4163 7.70455 90.1559 8.23011C89.8955 8.75568 89.7653 9.31913 89.7653 9.92045V10.8864C89.7653 11.7102 89.9073 12.4086 90.1914 12.9815C90.4802 13.5497 90.8803 13.983 91.3917 14.2812C91.9031 14.5748 92.4973 14.7216 93.1744 14.7216C93.6147 14.7216 94.0124 14.66 94.3675 14.5369C94.7274 14.4091 95.0375 14.2197 95.2979 13.9688C95.5584 13.7131 95.7596 13.3958 95.9016 13.017L97.521 13.4716C97.3505 14.0208 97.064 14.5038 96.6616 14.9205C96.2591 15.3324 95.762 15.6544 95.1701 15.8864C94.5782 16.1136 93.913 16.2273 93.1744 16.2273ZM110.298 16.2273C109.313 16.2273 108.449 15.9929 107.706 15.5241C106.967 15.0554 106.389 14.3996 105.973 13.5568C105.561 12.714 105.355 11.7292 105.355 10.6023C105.355 9.46591 105.561 8.47396 105.973 7.62642C106.389 6.77888 106.967 6.12074 107.706 5.65199C108.449 5.18324 109.313 4.94886 110.298 4.94886C111.283 4.94886 112.145 5.18324 112.883 5.65199C113.627 6.12074 114.204 6.77888 114.616 7.62642C115.033 8.47396 115.241 9.46591 115.241 10.6023C115.241 11.7292 115.033 12.714 114.616 13.5568C114.204 14.3996 113.627 15.0554 112.883 15.5241C112.145 15.9929 111.283 16.2273 110.298 16.2273ZM110.298 14.7216C111.046 14.7216 111.662 14.5298 112.145 14.1463C112.627 13.7628 112.985 13.2585 113.217 12.6335C113.449 12.0085 113.565 11.3314 113.565 10.6023C113.565 9.87311 113.449 9.19366 113.217 8.56392C112.985 7.93419 112.627 7.42519 112.145 7.03693C111.662 6.64867 111.046 6.45455 110.298 6.45455C109.55 6.45455 108.934 6.64867 108.451 7.03693C107.968 7.42519 107.611 7.93419 107.379 8.56392C107.147 9.19366 107.031 9.87311 107.031 10.6023C107.031 11.3314 107.147 12.0085 107.379 12.6335C107.611 13.2585 107.968 13.7628 108.451 14.1463C108.934 14.5298 109.55 14.7216 110.298 14.7216ZM119.476 9.4375V16H117.8V5.09091H119.419V6.79545H119.561C119.817 6.24148 120.205 5.7964 120.726 5.46023C121.247 5.11932 121.919 4.94886 122.743 4.94886C123.482 4.94886 124.128 5.10038 124.682 5.40341C125.236 5.7017 125.667 6.15625 125.974 6.76705C126.282 7.37311 126.436 8.14015 126.436 9.06818V16H124.76V9.18182C124.76 8.32481 124.537 7.6572 124.092 7.17898C123.647 6.69602 123.036 6.45455 122.26 6.45455C121.725 6.45455 121.247 6.57055 120.825 6.80256C120.409 7.03456 120.08 7.37311 119.838 7.81818C119.597 8.26326 119.476 8.80303 119.476 9.4375ZM131.175 1.45455V16H129.499V1.45455H131.175ZM135.325 20.0909C135.04 20.0909 134.787 20.0672 134.565 20.0199C134.342 19.9773 134.188 19.9347 134.103 19.892L134.529 18.4148C134.936 18.5189 135.296 18.5568 135.609 18.5284C135.921 18.5 136.198 18.3603 136.44 18.1094C136.686 17.8632 136.911 17.4631 137.114 16.9091L137.427 16.0568L133.393 5.09091H135.211L138.222 13.7841H138.336L141.347 5.09091H143.165L138.535 17.5909C138.326 18.1544 138.068 18.6207 137.761 18.9901C137.453 19.3641 137.095 19.6411 136.688 19.821C136.286 20.0009 135.831 20.0909 135.325 20.0909ZM155.861 5.09091V6.51136H149.98V5.09091H155.861ZM151.741 16V3.58523C151.741 2.96023 151.888 2.43939 152.182 2.02273C152.475 1.60606 152.857 1.29356 153.325 1.08523C153.794 0.876893 154.289 0.772726 154.81 0.772726C155.222 0.772726 155.558 0.80587 155.818 0.872159C156.079 0.938446 156.273 0.999999 156.401 1.05682L155.918 2.50568C155.832 2.47727 155.714 2.44176 155.562 2.39915C155.416 2.35653 155.222 2.33523 154.98 2.33523C154.426 2.33523 154.026 2.4749 153.78 2.75426C153.538 3.03362 153.418 3.44318 153.418 3.98295V16H151.741ZM162.192 16.2273C161.208 16.2273 160.344 15.9929 159.6 15.5241C158.862 15.0554 158.284 14.3996 157.867 13.5568C157.455 12.714 157.249 11.7292 157.249 10.6023C157.249 9.46591 157.455 8.47396 157.867 7.62642C158.284 6.77888 158.862 6.12074 159.6 5.65199C160.344 5.18324 161.208 4.94886 162.192 4.94886C163.177 4.94886 164.039 5.18324 164.778 5.65199C165.521 6.12074 166.099 6.77888 166.511 7.62642C166.927 8.47396 167.136 9.46591 167.136 10.6023C167.136 11.7292 166.927 12.714 166.511 13.5568C166.099 14.3996 165.521 15.0554 164.778 15.5241C164.039 15.9929 163.177 16.2273 162.192 16.2273ZM162.192 14.7216C162.941 14.7216 163.556 14.5298 164.039 14.1463C164.522 13.7628 164.879 13.2585 165.112 12.6335C165.344 12.0085 165.46 11.3314 165.46 10.6023C165.46 9.87311 165.344 9.19366 165.112 8.56392C164.879 7.93419 164.522 7.42519 164.039 7.03693C163.556 6.64867 162.941 6.45455 162.192 6.45455C161.444 6.45455 160.829 6.64867 160.346 7.03693C159.863 7.42519 159.505 7.93419 159.273 8.56392C159.041 9.19366 158.925 9.87311 158.925 10.6023C158.925 11.3314 159.041 12.0085 159.273 12.6335C159.505 13.2585 159.863 13.7628 160.346 14.1463C160.829 14.5298 161.444 14.7216 162.192 14.7216ZM169.694 16V5.09091H171.314V6.73864H171.427C171.626 6.19886 171.986 5.76089 172.507 5.42472C173.028 5.08854 173.615 4.92045 174.268 4.92045C174.391 4.92045 174.545 4.92282 174.73 4.92756C174.914 4.93229 175.054 4.93939 175.149 4.94886V6.65341C175.092 6.6392 174.962 6.6179 174.758 6.58949C174.559 6.55634 174.349 6.53977 174.126 6.53977C173.596 6.53977 173.122 6.65104 172.706 6.87358C172.294 7.09138 171.967 7.39441 171.725 7.78267C171.489 8.16619 171.37 8.60417 171.37 9.09659V16H169.694ZM183.84 20.0909C183.556 20.0909 183.303 20.0672 183.08 20.0199C182.858 19.9773 182.704 19.9347 182.619 19.892L183.045 18.4148C183.452 18.5189 183.812 18.5568 184.124 18.5284C184.437 18.5 184.714 18.3603 184.955 18.1094C185.201 17.8632 185.426 17.4631 185.63 16.9091L185.942 16.0568L181.908 5.09091H183.727L186.738 13.7841H186.852L189.863 5.09091H191.681L187.05 17.5909C186.842 18.1544 186.584 18.6207 186.276 18.9901C185.969 19.3641 185.611 19.6411 185.204 19.821C184.801 20.0009 184.347 20.0909 183.84 20.0909ZM197.935 16.2273C196.95 16.2273 196.086 15.9929 195.342 15.5241C194.604 15.0554 194.026 14.3996 193.609 13.5568C193.197 12.714 192.991 11.7292 192.991 10.6023C192.991 9.46591 193.197 8.47396 193.609 7.62642C194.026 6.77888 194.604 6.12074 195.342 5.65199C196.086 5.18324 196.95 4.94886 197.935 4.94886C198.92 4.94886 199.781 5.18324 200.52 5.65199C201.263 6.12074 201.841 6.77888 202.253 7.62642C202.67 8.47396 202.878 9.46591 202.878 10.6023C202.878 11.7292 202.67 12.714 202.253 13.5568C201.841 14.3996 201.263 15.0554 200.52 15.5241C199.781 15.9929 198.92 16.2273 197.935 16.2273ZM197.935 14.7216C198.683 14.7216 199.298 14.5298 199.781 14.1463C200.264 13.7628 200.622 13.2585 200.854 12.6335C201.086 12.0085 201.202 11.3314 201.202 10.6023C201.202 9.87311 201.086 9.19366 200.854 8.56392C200.622 7.93419 200.264 7.42519 199.781 7.03693C199.298 6.64867 198.683 6.45455 197.935 6.45455C197.187 6.45455 196.571 6.64867 196.088 7.03693C195.605 7.42519 195.248 7.93419 195.016 8.56392C194.784 9.19366 194.668 9.87311 194.668 10.6023C194.668 11.3314 194.784 12.0085 195.016 12.6335C195.248 13.2585 195.605 13.7628 196.088 14.1463C196.571 14.5298 197.187 14.7216 197.935 14.7216ZM212.311 11.5398V5.09091H213.988V16H212.311V14.1534H212.198C211.942 14.7074 211.544 15.1785 211.005 15.5668C210.465 15.9503 209.783 16.142 208.959 16.142C208.277 16.142 207.671 15.9929 207.141 15.6946C206.611 15.3916 206.194 14.937 205.891 14.331C205.588 13.7202 205.436 12.9508 205.436 12.0227V5.09091H207.113V11.9091C207.113 12.7045 207.335 13.339 207.78 13.8125C208.23 14.286 208.803 14.5227 209.499 14.5227C209.916 14.5227 210.339 14.4162 210.77 14.2031C211.206 13.9901 211.57 13.6634 211.864 13.223C212.162 12.7827 212.311 12.2216 212.311 11.5398ZM219.558 14.0114L219.444 14.7784C219.363 15.3182 219.24 15.8958 219.075 16.5114C218.914 17.1269 218.746 17.7069 218.57 18.2514C218.395 18.7959 218.251 19.2292 218.137 19.5511H216.859C216.92 19.2481 217.001 18.848 217.1 18.3509C217.2 17.8537 217.299 17.2973 217.398 16.6818C217.503 16.071 217.588 15.446 217.654 14.8068L217.739 14.0114H219.558ZM228.515 16V1.45455H237.237V3.01705H230.277V7.93182H236.583V9.49432H230.277V16H228.515ZM240.026 16V5.09091H241.702V16H240.026ZM240.879 3.27273C240.552 3.27273 240.27 3.16146 240.033 2.93892C239.801 2.71638 239.685 2.44886 239.685 2.13636C239.685 1.82386 239.801 1.55634 240.033 1.33381C240.27 1.11127 240.552 1 240.879 1C241.205 1 241.485 1.11127 241.717 1.33381C241.953 1.55634 242.072 1.82386 242.072 2.13636C242.072 2.44886 241.953 2.71638 241.717 2.93892C241.485 3.16146 241.205 3.27273 240.879 3.27273ZM249.517 5.09091V6.51136H243.863V5.09091H249.517ZM245.511 2.47727H247.187V12.875C247.187 13.3485 247.256 13.7036 247.393 13.9403C247.535 14.1723 247.715 14.3286 247.933 14.4091C248.155 14.4848 248.39 14.5227 248.636 14.5227C248.821 14.5227 248.972 14.5133 249.091 14.4943C249.209 14.4706 249.304 14.4517 249.375 14.4375L249.716 15.9432C249.602 15.9858 249.443 16.0284 249.24 16.071C249.036 16.1184 248.778 16.142 248.466 16.142C247.992 16.142 247.528 16.0402 247.074 15.8366C246.624 15.633 246.25 15.3229 245.951 14.9062C245.658 14.4896 245.511 13.964 245.511 13.3295V2.47727ZM257.897 8.98295V10.5455H251.534V8.98295H257.897ZM260.847 16V5.09091H262.523V16H260.847ZM261.699 3.27273C261.372 3.27273 261.09 3.16146 260.854 2.93892C260.622 2.71638 260.506 2.44886 260.506 2.13636C260.506 1.82386 260.622 1.55634 260.854 1.33381C261.09 1.11127 261.372 1 261.699 1C262.026 1 262.305 1.11127 262.537 1.33381C262.774 1.55634 262.892 1.82386 262.892 2.13636C262.892 2.44886 262.774 2.71638 262.537 2.93892C262.305 3.16146 262.026 3.27273 261.699 3.27273Z" fill="#011E5F"/>
</svg>
