<svg width="20" height="26" viewBox="0 0 20 26" fill="none" xmlns="http://www.w3.org/2000/svg">
<path d="M3.44196 24.07H9.42733C8.80754 23.4977 8.30772 22.7813 8.00184 21.9917H3.6251C2.60403 21.9917 2.07644 21.4757 2.07644 20.4884V4.72842C2.07644 3.75843 2.59343 3.20583 3.6251 3.20583H14.5594C15.5543 3.20583 16.0974 3.74975 16.0974 4.72842V13.8836C16.8869 14.1876 17.6034 14.6787 18.1738 15.3072V4.60802C18.1738 2.30985 17.004 1.12939 14.7338 1.12939H3.44196C1.18046 1.12939 0 2.31854 0 4.60802V20.5914C0 22.8896 1.18046 24.07 3.44196 24.07ZM5.21995 7.52239H12.9751C13.3575 7.52239 13.6513 7.218 13.6513 6.83561C13.6513 6.46572 13.3575 6.18062 12.9751 6.18062H5.21995C4.81827 6.18062 4.53317 6.46572 4.53317 6.83561C4.53317 7.218 4.81827 7.52239 5.21995 7.52239ZM5.21995 11.1382H12.9751C13.3575 11.1382 13.6513 10.8424 13.6513 10.4601C13.6513 10.0902 13.3575 9.7964 12.9751 9.7964H5.21995C4.81827 9.7964 4.53317 10.0902 4.53317 10.4601C4.53317 10.8424 4.81827 11.1382 5.21995 11.1382Z" fill="#FFA3A3"/>
<path d="M13.5048 24.0703C16.0837 24.0703 18.1776 21.9763 18.1776 19.3974C18.1776 16.8069 16.0856 14.7109 13.5048 14.7109C10.9317 14.7109 8.81836 16.8243 8.81836 19.3974C8.81836 21.9763 10.9317 24.0703 13.5048 24.0703ZM13.5048 22.4593C11.8061 22.4593 10.4274 21.0826 10.4274 19.3974C10.4274 17.718 11.8061 16.3306 13.5048 16.3306C15.1794 16.3306 16.558 17.718 16.558 19.3974C16.558 21.0826 15.188 22.4593 13.5048 22.4593ZM19.0499 25.9947C19.589 25.9947 20 25.5751 20 24.9888C20 24.7327 19.8853 24.4805 19.6861 24.2793L16.8158 21.4023L15.3515 22.7478L18.2324 25.6355C18.4925 25.8936 18.7485 25.9947 19.0499 25.9947Z" fill="#FFA3A3"/>
</svg>
