<svg width="289" height="22" viewBox="0 0 289 22" fill="none" xmlns="http://www.w3.org/2000/svg">
<path d="M0.133984 11.52C0.133984 10.4267 0.233984 9.36 0.433984 8.32C0.647318 7.28 0.973984 6.28667 1.41398 5.34C1.85398 4.39333 2.40732 3.52 3.07398 2.72H5.21398C4.61398 3.54667 4.10065 4.44 3.67398 5.4C3.26065 6.36 2.94732 7.35333 2.73398 8.38C2.53398 9.40667 2.43398 10.4467 2.43398 11.5C2.43398 12.5267 2.53398 13.5467 2.73398 14.56C2.94732 15.5733 3.26065 16.5533 3.67398 17.5C4.08732 18.4467 4.59398 19.3333 5.19398 20.16H3.07398C2.40732 19.3733 1.85398 18.5133 1.41398 17.58C0.973984 16.66 0.647318 15.6867 0.433984 14.66C0.233984 13.6333 0.133984 12.5867 0.133984 11.52ZM13.8184 17L9.89836 5.3H9.81836C9.83169 5.56667 9.85169 5.94667 9.87836 6.44C9.90503 6.92 9.92503 7.44667 9.93836 8.02C9.96503 8.58 9.97836 9.10667 9.97836 9.6V17H7.67836V2.72H11.2384L14.9984 13.94H15.0784L18.9984 2.72H22.5584V17H20.1184V9.48C20.1184 9.02667 20.125 8.53333 20.1384 8C20.165 7.45333 20.185 6.94 20.1984 6.46C20.225 5.96667 20.245 5.58667 20.2584 5.32H20.1784L16.0984 17H13.8184ZM24.3926 6.16H27.1326L29.2926 12.28C29.3859 12.5467 29.4659 12.8067 29.5326 13.06C29.6126 13.3 29.6792 13.5467 29.7326 13.8C29.7859 14.0533 29.8259 14.3067 29.8526 14.56H29.9326C29.9859 14.2267 30.0659 13.86 30.1726 13.46C30.2926 13.06 30.4126 12.6667 30.5326 12.28L32.6126 6.16H35.3326L30.7126 18.44C30.4459 19.1467 30.1059 19.7533 29.6926 20.26C29.2926 20.7667 28.8126 21.1467 28.2526 21.4C27.7059 21.6667 27.0859 21.8 26.3926 21.8C26.0726 21.8 25.7859 21.78 25.5326 21.74C25.2926 21.7133 25.0792 21.68 24.8926 21.64V19.64C25.0392 19.6667 25.2126 19.6933 25.4126 19.72C25.6259 19.7467 25.8459 19.76 26.0726 19.76C26.4859 19.76 26.8392 19.6733 27.1326 19.5C27.4392 19.34 27.6926 19.1133 27.8926 18.82C28.1059 18.5267 28.2792 18.2 28.4126 17.84L28.7326 16.96L24.3926 6.16ZM46.6454 2.72C48.4987 2.72 49.8454 3.10667 50.6854 3.88C51.5387 4.65333 51.9654 5.72 51.9654 7.08C51.9654 7.69333 51.8721 8.28 51.6854 8.84C51.4987 9.38667 51.1854 9.88 50.7454 10.32C50.3054 10.76 49.7254 11.1067 49.0054 11.36C48.2987 11.6133 47.4187 11.74 46.3654 11.74H44.9454V17H42.3854V2.72H46.6454ZM46.4854 4.84H44.9454V9.62H46.1054C46.7987 9.62 47.3854 9.54 47.8654 9.38C48.3587 9.20667 48.7321 8.94 48.9854 8.58C49.2387 8.22 49.3654 7.75333 49.3654 7.18C49.3654 6.39333 49.1321 5.80667 48.6654 5.42C48.1987 5.03333 47.4721 4.84 46.4854 4.84ZM58.8482 5.96C60.2482 5.96 61.3082 6.26667 62.0282 6.88C62.7615 7.48 63.1282 8.42667 63.1282 9.72V17H61.3482L60.8482 15.5H60.7682C60.4615 15.8867 60.1415 16.2133 59.8082 16.48C59.4882 16.7333 59.1149 16.9133 58.6882 17.02C58.2749 17.14 57.7682 17.2 57.1682 17.2C56.5282 17.2 55.9482 17.08 55.4282 16.84C54.9215 16.6 54.5215 16.2333 54.2282 15.74C53.9349 15.2333 53.7882 14.6 53.7882 13.84C53.7882 12.72 54.1949 11.88 55.0082 11.32C55.8349 10.7467 57.0815 10.4333 58.7482 10.38L60.6282 10.32V9.78C60.6282 9.08667 60.4615 8.59333 60.1282 8.3C59.7949 8.00667 59.3282 7.86 58.7282 7.86C58.1815 7.86 57.6549 7.94 57.1482 8.1C56.6415 8.26 56.1482 8.44667 55.6682 8.66L54.8682 6.9C55.4015 6.62 56.0082 6.39333 56.6882 6.22C57.3815 6.04667 58.1015 5.96 58.8482 5.96ZM59.3082 11.92C58.2015 11.96 57.4349 12.1533 57.0082 12.5C56.5815 12.8333 56.3682 13.2867 56.3682 13.86C56.3682 14.3667 56.5215 14.7333 56.8282 14.96C57.1349 15.1867 57.5282 15.3 58.0082 15.3C58.7415 15.3 59.3615 15.0933 59.8682 14.68C60.3749 14.2533 60.6282 13.6267 60.6282 12.8V11.88L59.3082 11.92ZM69.926 5.96C70.606 5.96 71.2193 6.09333 71.766 6.36C72.3127 6.62667 72.7727 7.02667 73.146 7.56H73.246L73.486 6.16H75.586V17.08C75.586 18.1067 75.3927 18.9667 75.006 19.66C74.6193 20.3667 74.0393 20.9 73.266 21.26C72.4927 21.62 71.526 21.8 70.366 21.8C69.5927 21.8 68.8793 21.7467 68.226 21.64C67.5727 21.5467 66.9527 21.38 66.366 21.14V19.06C66.7793 19.2333 67.206 19.38 67.646 19.5C68.0993 19.6333 68.566 19.7333 69.046 19.8C69.526 19.8667 70.0193 19.9 70.526 19.9C71.3527 19.9 71.9793 19.6667 72.406 19.2C72.846 18.7333 73.066 18.0667 73.066 17.2V16.92C73.066 16.72 73.0727 16.4867 73.086 16.22C73.1127 15.9533 73.1327 15.74 73.146 15.58H73.066C72.6927 16.14 72.2393 16.5533 71.706 16.82C71.1727 17.0733 70.5593 17.2 69.866 17.2C68.546 17.2 67.5127 16.7067 66.766 15.72C66.0193 14.7333 65.646 13.36 65.646 11.6C65.646 10.4133 65.8127 9.4 66.146 8.56C66.4927 7.72 66.986 7.08 67.626 6.64C68.266 6.18667 69.0327 5.96 69.926 5.96ZM70.586 8.02C70.0793 8.02 69.646 8.16 69.286 8.44C68.9393 8.70667 68.6727 9.10667 68.486 9.64C68.3127 10.1733 68.226 10.84 68.226 11.64C68.226 12.8133 68.426 13.7 68.826 14.3C69.226 14.9 69.826 15.2 70.626 15.2C71.0793 15.2 71.466 15.1467 71.786 15.04C72.106 14.92 72.366 14.7333 72.566 14.48C72.7793 14.2133 72.9393 13.88 73.046 13.48C73.1527 13.0667 73.206 12.5733 73.206 12V11.62C73.206 10.7533 73.1127 10.06 72.926 9.54C72.7393 9.00667 72.4527 8.62 72.066 8.38C71.6927 8.14 71.1993 8.02 70.586 8.02ZM83.1655 5.96C84.1389 5.96 84.9722 6.16 85.6655 6.56C86.3722 6.94667 86.9189 7.50667 87.3055 8.24C87.6922 8.96 87.8855 9.84 87.8855 10.88V12.16H80.7255C80.7522 13.1467 81.0255 13.9133 81.5455 14.46C82.0655 14.9933 82.7855 15.26 83.7055 15.26C84.4122 15.26 85.0389 15.1933 85.5855 15.06C86.1455 14.9133 86.7189 14.7067 87.3055 14.44V16.46C86.7722 16.7133 86.2189 16.9 85.6455 17.02C85.0722 17.14 84.3855 17.2 83.5855 17.2C82.5322 17.2 81.5922 17 80.7655 16.6C79.9522 16.1867 79.3122 15.5667 78.8455 14.74C78.3922 13.9133 78.1655 12.8867 78.1655 11.66C78.1655 10.42 78.3722 9.38 78.7855 8.54C79.2122 7.68667 79.7989 7.04667 80.5455 6.62C81.2922 6.18 82.1655 5.96 83.1655 5.96ZM83.1655 7.82C82.4989 7.82 81.9522 8.04 81.5255 8.48C81.1122 8.90667 80.8655 9.54667 80.7855 10.4H85.4455C85.4455 9.89333 85.3589 9.44667 85.1855 9.06C85.0255 8.67333 84.7789 8.37333 84.4455 8.16C84.1122 7.93333 83.6855 7.82 83.1655 7.82ZM97.0066 7.08V9.22H100.047V7.08H97.0066ZM102.987 0.26V18.78H105.527V0.26H102.987ZM99.2066 0.54V17.94H101.707V0.54H99.2066ZM93.7666 1.56C91.3266 1.56 89.7666 4.1 89.7666 8.28C89.7666 12.48 91.3266 15.02 93.7666 15.02C96.2266 15.02 97.8066 12.48 97.8066 8.28C97.8066 4.1 96.2266 1.56 93.7666 1.56ZM93.7666 4.06C94.8066 4.06 95.3866 5.46 95.3866 8.28C95.3866 11.12 94.8066 12.5 93.7666 12.5C92.7666 12.5 92.1866 11.12 92.1866 8.28C92.1866 5.46 92.7666 4.06 93.7666 4.06ZM117.345 6.04V8.18H122.225V6.04H117.345ZM112.305 1.68V4.36C112.305 7.88 110.905 11.46 107.745 12.92L109.405 15.06C112.885 13.32 114.465 9.02 114.465 4.36V1.68H112.305ZM112.865 1.68V4.36C112.865 8.98 114.325 13.06 117.805 14.74L119.385 12.62C116.325 11.26 114.985 7.88 114.985 4.36V1.68H112.865ZM120.905 0.239999V18.82H123.545V0.239999H120.905ZM132.399 2.18V4.28H147.479V2.18H132.399ZM131.619 12.24V14.38H148.379V12.24H131.619ZM138.639 14.12V18.8H141.299V14.12H138.639ZM139.979 5C135.979 5 133.619 6.12 133.619 8.18C133.619 10.22 135.979 11.36 139.979 11.36C143.959 11.36 146.319 10.22 146.319 8.18C146.319 6.12 143.959 5 139.979 5ZM139.979 6.98C142.399 6.98 143.579 7.34 143.579 8.18C143.579 9.02 142.399 9.38 139.979 9.38C137.559 9.38 136.379 9.02 136.379 8.18C136.379 7.34 137.559 6.98 139.979 6.98ZM138.639 0.239999V3.58H141.299V0.239999H138.639ZM162.757 0.26V18.78H165.437V0.26H162.757ZM157.297 2.18V2.66C157.297 7.62 155.377 10.98 150.057 13.54L151.437 15.66C158.017 12.48 159.937 7.84 159.937 2.18H157.297ZM151.037 2.18V4.28H158.557V2.18H151.037ZM168.396 8.56V10.5H185.176V8.56H168.396ZM170.276 11.42V13.22H180.556V14.14H170.316V17.4H172.956V15.82H183.176V11.42H170.276ZM170.316 16.84V18.64H183.696V16.84H170.316ZM170.456 0.579999V2.36H180.516V3.28H170.476V6.46H173.116V4.94H183.136V0.579999H170.456ZM170.476 5.9V7.7H183.476V5.9H170.476ZM203.909 0.26V10.7H206.569V0.26H203.909ZM205.849 4.16V6.32H209.029V4.16H205.849ZM194.509 11.54V18.58H206.569V11.54H194.509ZM203.969 13.62V16.48H197.129V13.62H203.969ZM192.729 1.14V8.72H195.389V1.14H192.729ZM192.729 7.58V9.76H194.289C196.909 9.76 199.749 9.6 202.769 8.98L202.469 6.84C199.549 7.4 196.809 7.58 194.289 7.58H192.729ZM217.168 2.18V2.66C217.168 7.62 215.088 10.98 210.188 13.52L211.568 15.6C217.788 12.48 219.788 7.76 219.788 2.18H217.168ZM211.068 2.18V4.28H218.568V2.18H211.068ZM223.228 0.26V18.78H225.888V0.26H223.228ZM219.068 5V7.1H223.608V5H219.068ZM218.868 10.06V12.18H223.428V10.06H218.868ZM235.646 2.32V2.86C235.646 4.76 233.686 6.84 229.606 7.34L230.586 9.42C235.286 8.78 237.946 6.12 237.946 2.86V2.32H235.646ZM236.406 2.32V2.86C236.406 6.12 239.066 8.78 243.786 9.42L244.746 7.34C240.666 6.84 238.706 4.76 238.706 2.86V2.32H236.406ZM235.786 12V18.8H238.426V12H235.786ZM228.806 10.48V12.6H245.546V10.48H228.806ZM230.286 1.2V3.3H244.026V1.2H230.286ZM254.485 6.48V8.64H257.545V6.48H254.485ZM250.525 1.86V4.98C250.525 8.12 249.565 11.42 246.845 13.1L248.445 15.1C251.405 13.28 252.565 9.18 252.565 4.98V1.86H250.525ZM251.105 1.86V4.86C251.105 8.86 252.025 12.86 254.965 14.68L256.405 12.6C253.885 10.96 253.105 7.88 253.105 4.86V1.86H251.105ZM260.565 0.26V18.78H263.105V0.26H260.565ZM256.805 0.54V17.94H259.285V0.54H256.805ZM269.283 9.66V14.86H271.923V9.66H269.283ZM276.003 9.66V14.86H278.663V9.66H276.003ZM265.603 14.48V16.64H282.363V14.48H265.603ZM273.963 1.16C269.963 1.16 267.043 3.12 267.043 6.14C267.043 9.16 269.963 11.1 273.963 11.1C277.943 11.1 280.883 9.16 280.883 6.14C280.883 3.12 277.943 1.16 273.963 1.16ZM273.963 3.24C276.543 3.24 278.263 4.3 278.263 6.14C278.263 7.96 276.543 9.04 273.963 9.04C271.383 9.04 269.663 7.96 269.663 6.14C269.663 4.3 271.383 3.24 273.963 3.24ZM288.862 11.52C288.862 12.5867 288.755 13.6333 288.542 14.66C288.342 15.6867 288.022 16.66 287.582 17.58C287.155 18.5133 286.602 19.3733 285.922 20.16H283.802C284.402 19.3333 284.908 18.4467 285.322 17.5C285.735 16.5533 286.048 15.5733 286.262 14.56C286.475 13.5467 286.582 12.5267 286.582 11.5C286.582 10.4467 286.475 9.40667 286.262 8.38C286.048 7.35333 285.735 6.36 285.322 5.4C284.922 4.44 284.408 3.54667 283.782 2.72H285.922C286.602 3.52 287.155 4.39333 287.582 5.34C288.022 6.28667 288.342 7.28 288.542 8.32C288.755 9.36 288.862 10.4267 288.862 11.52Z" fill="#011E5F"/>
</svg>
