<svg width="291" height="27" viewBox="0 0 291 27" fill="none" xmlns="http://www.w3.org/2000/svg">
<path d="M1.13398 15.52C1.13398 14.4267 1.23398 13.36 1.43398 12.32C1.64732 11.28 1.97398 10.2867 2.41398 9.34C2.85398 8.39333 3.40732 7.52 4.07398 6.72H6.21398C5.61398 7.54667 5.10065 8.44 4.67398 9.4C4.26065 10.36 3.94732 11.3533 3.73398 12.38C3.53398 13.4067 3.43398 14.4467 3.43398 15.5C3.43398 16.5267 3.53398 17.5467 3.73398 18.56C3.94732 19.5733 4.26065 20.5533 4.67398 21.5C5.08732 22.4467 5.59398 23.3333 6.19398 24.16H4.07398C3.40732 23.3733 2.85398 22.5133 2.41398 21.58C1.97398 20.66 1.64732 19.6867 1.43398 18.66C1.23398 17.6333 1.13398 16.5867 1.13398 15.52ZM14.8184 21L10.8984 9.3H10.8184C10.8317 9.56667 10.8517 9.94667 10.8784 10.44C10.905 10.92 10.925 11.4467 10.9384 12.02C10.965 12.58 10.9784 13.1067 10.9784 13.6V21H8.67836V6.72H12.2384L15.9984 17.94H16.0784L19.9984 6.72H23.5584V21H21.1184V13.48C21.1184 13.0267 21.125 12.5333 21.1384 12C21.165 11.4533 21.185 10.94 21.1984 10.46C21.225 9.96667 21.245 9.58667 21.2584 9.32H21.1784L17.0984 21H14.8184ZM25.3926 10.16H28.1326L30.2926 16.28C30.3859 16.5467 30.4659 16.8067 30.5326 17.06C30.6126 17.3 30.6792 17.5467 30.7326 17.8C30.7859 18.0533 30.8259 18.3067 30.8526 18.56H30.9326C30.9859 18.2267 31.0659 17.86 31.1726 17.46C31.2926 17.06 31.4126 16.6667 31.5326 16.28L33.6126 10.16H36.3326L31.7126 22.44C31.4459 23.1467 31.1059 23.7533 30.6926 24.26C30.2926 24.7667 29.8126 25.1467 29.2526 25.4C28.7059 25.6667 28.0859 25.8 27.3926 25.8C27.0726 25.8 26.7859 25.78 26.5326 25.74C26.2926 25.7133 26.0792 25.68 25.8926 25.64V23.64C26.0392 23.6667 26.2126 23.6933 26.4126 23.72C26.6259 23.7467 26.8459 23.76 27.0726 23.76C27.4859 23.76 27.8392 23.6733 28.1326 23.5C28.4392 23.34 28.6926 23.1133 28.8926 22.82C29.1059 22.5267 29.2792 22.2 29.4126 21.84L29.7326 20.96L25.3926 10.16ZM47.6454 6.72C49.4987 6.72 50.8454 7.10667 51.6854 7.88C52.5387 8.65333 52.9654 9.72 52.9654 11.08C52.9654 11.6933 52.8721 12.28 52.6854 12.84C52.4987 13.3867 52.1854 13.88 51.7454 14.32C51.3054 14.76 50.7254 15.1067 50.0054 15.36C49.2987 15.6133 48.4187 15.74 47.3654 15.74H45.9454V21H43.3854V6.72H47.6454ZM47.4854 8.84H45.9454V13.62H47.1054C47.7987 13.62 48.3854 13.54 48.8654 13.38C49.3587 13.2067 49.7321 12.94 49.9854 12.58C50.2387 12.22 50.3654 11.7533 50.3654 11.18C50.3654 10.3933 50.1321 9.80667 49.6654 9.42C49.1987 9.03333 48.4721 8.84 47.4854 8.84ZM59.8482 9.96C61.2482 9.96 62.3082 10.2667 63.0282 10.88C63.7615 11.48 64.1282 12.4267 64.1282 13.72V21H62.3482L61.8482 19.5H61.7682C61.4615 19.8867 61.1415 20.2133 60.8082 20.48C60.4882 20.7333 60.1149 20.9133 59.6882 21.02C59.2749 21.14 58.7682 21.2 58.1682 21.2C57.5282 21.2 56.9482 21.08 56.4282 20.84C55.9215 20.6 55.5215 20.2333 55.2282 19.74C54.9349 19.2333 54.7882 18.6 54.7882 17.84C54.7882 16.72 55.1949 15.88 56.0082 15.32C56.8349 14.7467 58.0815 14.4333 59.7482 14.38L61.6282 14.32V13.78C61.6282 13.0867 61.4615 12.5933 61.1282 12.3C60.7949 12.0067 60.3282 11.86 59.7282 11.86C59.1815 11.86 58.6549 11.94 58.1482 12.1C57.6415 12.26 57.1482 12.4467 56.6682 12.66L55.8682 10.9C56.4015 10.62 57.0082 10.3933 57.6882 10.22C58.3815 10.0467 59.1015 9.96 59.8482 9.96ZM60.3082 15.92C59.2015 15.96 58.4349 16.1533 58.0082 16.5C57.5815 16.8333 57.3682 17.2867 57.3682 17.86C57.3682 18.3667 57.5215 18.7333 57.8282 18.96C58.1349 19.1867 58.5282 19.3 59.0082 19.3C59.7415 19.3 60.3615 19.0933 60.8682 18.68C61.3749 18.2533 61.6282 17.6267 61.6282 16.8V15.88L60.3082 15.92ZM70.926 9.96C71.606 9.96 72.2193 10.0933 72.766 10.36C73.3127 10.6267 73.7727 11.0267 74.146 11.56H74.246L74.486 10.16H76.586V21.08C76.586 22.1067 76.3927 22.9667 76.006 23.66C75.6193 24.3667 75.0393 24.9 74.266 25.26C73.4927 25.62 72.526 25.8 71.366 25.8C70.5927 25.8 69.8793 25.7467 69.226 25.64C68.5727 25.5467 67.9527 25.38 67.366 25.14V23.06C67.7793 23.2333 68.206 23.38 68.646 23.5C69.0993 23.6333 69.566 23.7333 70.046 23.8C70.526 23.8667 71.0193 23.9 71.526 23.9C72.3527 23.9 72.9793 23.6667 73.406 23.2C73.846 22.7333 74.066 22.0667 74.066 21.2V20.92C74.066 20.72 74.0727 20.4867 74.086 20.22C74.1127 19.9533 74.1327 19.74 74.146 19.58H74.066C73.6927 20.14 73.2393 20.5533 72.706 20.82C72.1727 21.0733 71.5593 21.2 70.866 21.2C69.546 21.2 68.5127 20.7067 67.766 19.72C67.0193 18.7333 66.646 17.36 66.646 15.6C66.646 14.4133 66.8127 13.4 67.146 12.56C67.4927 11.72 67.986 11.08 68.626 10.64C69.266 10.1867 70.0327 9.96 70.926 9.96ZM71.586 12.02C71.0793 12.02 70.646 12.16 70.286 12.44C69.9393 12.7067 69.6727 13.1067 69.486 13.64C69.3127 14.1733 69.226 14.84 69.226 15.64C69.226 16.8133 69.426 17.7 69.826 18.3C70.226 18.9 70.826 19.2 71.626 19.2C72.0793 19.2 72.466 19.1467 72.786 19.04C73.106 18.92 73.366 18.7333 73.566 18.48C73.7793 18.2133 73.9393 17.88 74.046 17.48C74.1527 17.0667 74.206 16.5733 74.206 16V15.62C74.206 14.7533 74.1127 14.06 73.926 13.54C73.7393 13.0067 73.4527 12.62 73.066 12.38C72.6927 12.14 72.1993 12.02 71.586 12.02ZM84.1655 9.96C85.1389 9.96 85.9722 10.16 86.6655 10.56C87.3722 10.9467 87.9189 11.5067 88.3055 12.24C88.6922 12.96 88.8855 13.84 88.8855 14.88V16.16H81.7255C81.7522 17.1467 82.0255 17.9133 82.5455 18.46C83.0655 18.9933 83.7855 19.26 84.7055 19.26C85.4122 19.26 86.0389 19.1933 86.5855 19.06C87.1455 18.9133 87.7189 18.7067 88.3055 18.44V20.46C87.7722 20.7133 87.2189 20.9 86.6455 21.02C86.0722 21.14 85.3855 21.2 84.5855 21.2C83.5322 21.2 82.5922 21 81.7655 20.6C80.9522 20.1867 80.3122 19.5667 79.8455 18.74C79.3922 17.9133 79.1655 16.8867 79.1655 15.66C79.1655 14.42 79.3722 13.38 79.7855 12.54C80.2122 11.6867 80.7989 11.0467 81.5455 10.62C82.2922 10.18 83.1655 9.96 84.1655 9.96ZM84.1655 11.82C83.4989 11.82 82.9522 12.04 82.5255 12.48C82.1122 12.9067 81.8655 13.5467 81.7855 14.4H86.4455C86.4455 13.8933 86.3589 13.4467 86.1855 13.06C86.0255 12.6733 85.7789 12.3733 85.4455 12.16C85.1122 11.9333 84.6855 11.82 84.1655 11.82ZM98.0066 11.08V13.22H101.047V11.08H98.0066ZM103.987 4.26V22.78H106.527V4.26H103.987ZM100.207 4.54V21.94H102.707V4.54H100.207ZM94.7666 5.56C92.3266 5.56 90.7666 8.1 90.7666 12.28C90.7666 16.48 92.3266 19.02 94.7666 19.02C97.2266 19.02 98.8066 16.48 98.8066 12.28C98.8066 8.1 97.2266 5.56 94.7666 5.56ZM94.7666 8.06C95.8066 8.06 96.3866 9.46 96.3866 12.28C96.3866 15.12 95.8066 16.5 94.7666 16.5C93.7666 16.5 93.1866 15.12 93.1866 12.28C93.1866 9.46 93.7666 8.06 94.7666 8.06ZM118.345 10.04V12.18H123.225V10.04H118.345ZM113.305 5.68V8.36C113.305 11.88 111.905 15.46 108.745 16.92L110.405 19.06C113.885 17.32 115.465 13.02 115.465 8.36V5.68H113.305ZM113.865 5.68V8.36C113.865 12.98 115.325 17.06 118.805 18.74L120.385 16.62C117.325 15.26 115.985 11.88 115.985 8.36V5.68H113.865ZM121.905 4.24V22.82H124.545V4.24H121.905ZM133.399 6.18V8.28H148.479V6.18H133.399ZM132.619 16.24V18.38H149.379V16.24H132.619ZM139.639 18.12V22.8H142.299V18.12H139.639ZM140.979 9C136.979 9 134.619 10.12 134.619 12.18C134.619 14.22 136.979 15.36 140.979 15.36C144.959 15.36 147.319 14.22 147.319 12.18C147.319 10.12 144.959 9 140.979 9ZM140.979 10.98C143.399 10.98 144.579 11.34 144.579 12.18C144.579 13.02 143.399 13.38 140.979 13.38C138.559 13.38 137.379 13.02 137.379 12.18C137.379 11.34 138.559 10.98 140.979 10.98ZM139.639 4.24V7.58H142.299V4.24H139.639ZM163.757 4.26V22.78H166.437V4.26H163.757ZM158.297 6.18V6.66C158.297 11.62 156.377 14.98 151.057 17.54L152.437 19.66C159.017 16.48 160.937 11.84 160.937 6.18H158.297ZM152.037 6.18V8.28H159.557V6.18H152.037ZM169.396 12.56V14.5H186.176V12.56H169.396ZM171.276 15.42V17.22H181.556V18.14H171.316V21.4H173.956V19.82H184.176V15.42H171.276ZM171.316 20.84V22.64H184.696V20.84H171.316ZM171.456 4.58V6.36H181.516V7.28H171.476V10.46H174.116V8.94H184.136V4.58H171.456ZM171.476 9.9V11.7H184.476V9.9H171.476ZM204.909 4.26V14.7H207.569V4.26H204.909ZM206.849 8.16V10.32H210.029V8.16H206.849ZM195.509 15.54V22.58H207.569V15.54H195.509ZM204.969 17.62V20.48H198.129V17.62H204.969ZM193.729 5.14V12.72H196.389V5.14H193.729ZM193.729 11.58V13.76H195.289C197.909 13.76 200.749 13.6 203.769 12.98L203.469 10.84C200.549 11.4 197.809 11.58 195.289 11.58H193.729ZM218.168 6.18V6.66C218.168 11.62 216.088 14.98 211.188 17.52L212.568 19.6C218.788 16.48 220.788 11.76 220.788 6.18H218.168ZM212.068 6.18V8.28H219.568V6.18H212.068ZM224.228 4.26V22.78H226.888V4.26H224.228ZM220.068 9V11.1H224.608V9H220.068ZM219.868 14.06V16.18H224.428V14.06H219.868ZM236.646 6.32V6.86C236.646 8.76 234.686 10.84 230.606 11.34L231.586 13.42C236.286 12.78 238.946 10.12 238.946 6.86V6.32H236.646ZM237.406 6.32V6.86C237.406 10.12 240.066 12.78 244.786 13.42L245.746 11.34C241.666 10.84 239.706 8.76 239.706 6.86V6.32H237.406ZM236.786 16V22.8H239.426V16H236.786ZM229.806 14.48V16.6H246.546V14.48H229.806ZM231.286 5.2V7.3H245.026V5.2H231.286ZM255.485 10.48V12.64H258.545V10.48H255.485ZM251.525 5.86V8.98C251.525 12.12 250.565 15.42 247.845 17.1L249.445 19.1C252.405 17.28 253.565 13.18 253.565 8.98V5.86H251.525ZM252.105 5.86V8.86C252.105 12.86 253.025 16.86 255.965 18.68L257.405 16.6C254.885 14.96 254.105 11.88 254.105 8.86V5.86H252.105ZM261.565 4.26V22.78H264.105V4.26H261.565ZM257.805 4.54V21.94H260.285V4.54H257.805ZM270.283 13.66V18.86H272.923V13.66H270.283ZM277.003 13.66V18.86H279.663V13.66H277.003ZM266.603 18.48V20.64H283.363V18.48H266.603ZM274.963 5.16C270.963 5.16 268.043 7.12 268.043 10.14C268.043 13.16 270.963 15.1 274.963 15.1C278.943 15.1 281.883 13.16 281.883 10.14C281.883 7.12 278.943 5.16 274.963 5.16ZM274.963 7.24C277.543 7.24 279.263 8.3 279.263 10.14C279.263 11.96 277.543 13.04 274.963 13.04C272.383 13.04 270.663 11.96 270.663 10.14C270.663 8.3 272.383 7.24 274.963 7.24ZM289.862 15.52C289.862 16.5867 289.755 17.6333 289.542 18.66C289.342 19.6867 289.022 20.66 288.582 21.58C288.155 22.5133 287.602 23.3733 286.922 24.16H284.802C285.402 23.3333 285.908 22.4467 286.322 21.5C286.735 20.5533 287.048 19.5733 287.262 18.56C287.475 17.5467 287.582 16.5267 287.582 15.5C287.582 14.4467 287.475 13.4067 287.262 12.38C287.048 11.3533 286.735 10.36 286.322 9.4C285.922 8.44 285.408 7.54667 284.782 6.72H286.922C287.602 7.52 288.155 8.39333 288.582 9.34C289.022 10.2867 289.342 11.28 289.542 12.32C289.755 13.36 289.862 14.4267 289.862 15.52Z" fill="#011E5F"/>
</svg>
