<svg width="10" height="17" viewBox="0 0 10 17" fill="none" xmlns="http://www.w3.org/2000/svg">
<path d="M9.28711 8.49121C9.27832 8.18359 9.16406 7.90234 8.91797 7.67383L2.08008 0.994141C1.88672 0.800781 1.64063 0.695312 1.35059 0.695312C0.770508 0.695312 0.304688 1.15234 0.304688 1.73242C0.304688 2.01367 0.418945 2.28613 0.621094 2.48828L6.78223 8.48242L0.621094 14.4941C0.427734 14.6963 0.304688 14.96 0.304688 15.25C0.304688 15.8301 0.770508 16.2871 1.35059 16.2871C1.64062 16.2871 1.88672 16.1816 2.08008 15.9883L8.91797 9.2998C9.16406 9.0625 9.28711 8.79883 9.28711 8.49121Z" fill="#011E5F"/>
</svg>
