<svg width="20" height="20" viewBox="0 0 20 20" fill="none" xmlns="http://www.w3.org/2000/svg">
<path d="M9.99517 19.9903C15.4761 19.9903 20 15.4664 20 9.99517C20 4.52392 15.4664 0 9.9855 0C4.51426 0 0 4.52392 0 9.99517C0 15.4664 4.52392 19.9903 9.99517 19.9903ZM9.99517 17.999C5.55824 17.999 2.01063 14.4321 2.01063 9.99517C2.01063 5.55824 5.55824 2.00097 9.9855 2.00097C14.4224 2.00097 17.9894 5.55824 17.999 9.99517C18.0087 14.4321 14.4321 17.999 9.99517 17.999ZM5.8579 9.8405C5.8579 10.0918 6.05123 10.2948 6.30256 10.2948H6.84389L7.43354 13.9874C7.50121 14.4128 7.8202 14.6738 8.2262 14.6738C8.63219 14.6738 8.95118 14.4321 9.01885 13.9874L9.60851 10.2852H10.3625L10.9715 13.9874C11.0391 14.4321 11.3581 14.6738 11.7641 14.6738C12.1701 14.6738 12.4891 14.4224 12.5568 13.9874L13.1271 10.2852H13.6684C13.9294 10.2852 14.1131 10.0822 14.1131 9.83084C14.1131 9.56017 13.9294 9.37651 13.6684 9.37651H13.2721L13.7168 6.47656C13.7361 6.36056 13.7554 6.2639 13.7554 6.16723C13.7554 5.78057 13.4751 5.53891 13.0788 5.53891C12.7308 5.53891 12.4311 5.75157 12.3925 6.12856L11.9961 9.37651H11.2711L10.7588 6.21556C10.6912 5.79024 10.3625 5.54857 9.97583 5.54857C9.57951 5.54857 9.27018 5.79024 9.20251 6.22523L8.69019 9.38618H7.98453L7.60754 6.13823C7.55921 5.76124 7.26921 5.54857 6.91155 5.54857C6.50556 5.54857 6.21556 5.7999 6.21556 6.18656C6.21556 6.30256 6.24456 6.39923 6.25423 6.51522L6.69889 9.38618H6.30256C6.05123 9.38618 5.8579 9.56984 5.8579 9.8405ZM9.76317 9.38618L9.99517 7.74287L10.2272 9.38618H9.76317ZM8.09087 10.2755H8.56452L8.29386 12.2378L8.09087 10.2755ZM11.3968 10.2755H11.9188L11.6965 12.2861L11.3968 10.2755Z" fill="#9F7B28"/>
<path d="M9.99517 17.999C5.55824 17.999 2.01063 14.4321 2.01063 9.99517C2.01063 5.55824 5.55824 2.00097 9.9855 2.00097C14.4224 2.00097 17.9894 5.55824 17.999 9.99517C18.0087 14.4321 14.4321 17.999 9.99517 17.999ZM5.8579 9.8405C5.8579 10.0918 6.05123 10.2948 6.30256 10.2948H6.84389L7.43354 13.9874C7.50121 14.4128 7.8202 14.6738 8.2262 14.6738C8.63219 14.6738 8.95118 14.4321 9.01885 13.9874L9.60851 10.2852H10.3625L10.9715 13.9874C11.0391 14.4321 11.3581 14.6738 11.7641 14.6738C12.1701 14.6738 12.4891 14.4224 12.5568 13.9874L13.1271 10.2852H13.6684C13.9294 10.2852 14.1131 10.0822 14.1131 9.83084C14.1131 9.56017 13.9294 9.37651 13.6684 9.37651H13.2721L13.7168 6.47656C13.7361 6.36056 13.7554 6.2639 13.7554 6.16723C13.7554 5.78057 13.4751 5.53891 13.0788 5.53891C12.7308 5.53891 12.4311 5.75157 12.3925 6.12856L11.9961 9.37651H11.2711L10.7588 6.21556C10.6912 5.79024 10.3625 5.54857 9.97583 5.54857C9.57951 5.54857 9.27018 5.79024 9.20251 6.22523L8.69019 9.38618H7.98453L7.60754 6.13823C7.55921 5.76124 7.26921 5.54857 6.91155 5.54857C6.50556 5.54857 6.21556 5.7999 6.21556 6.18656C6.21556 6.30256 6.24456 6.39923 6.25423 6.51522L6.69889 9.38618H6.30256C6.05123 9.38618 5.8579 9.56984 5.8579 9.8405ZM9.76317 9.38618L9.99517 7.74287L10.2272 9.38618H9.76317ZM8.09087 10.2755H8.56452L8.29386 12.2378L8.09087 10.2755ZM11.3968 10.2755H11.9188L11.6965 12.2861L11.3968 10.2755Z" fill="#F6D06A"/>
</svg>
