<svg width="44" height="39" viewBox="0 0 44 39" fill="none" xmlns="http://www.w3.org/2000/svg">
<path d="M7.932 26.076V36.948H8.94V26.076H7.932ZM8.7 30.36V31.2H10.716V30.36H8.7ZM1.056 33.408V34.248H1.908C3.948 34.248 5.376 34.188 7.044 33.876L6.936 33.036C5.316 33.336 3.912 33.408 1.908 33.408H1.056ZM1.056 27.132V33.78H2.04V27.948H6.096V27.132H1.056ZM19.2711 26.076V36.948H20.2671V26.076H19.2711ZM14.5431 26.916C12.9471 26.916 11.7951 28.392 11.7951 30.696C11.7951 33.012 12.9471 34.488 14.5431 34.488C16.1511 34.488 17.3031 33.012 17.3031 30.696C17.3031 28.392 16.1511 26.916 14.5431 26.916ZM14.5431 27.816C15.6111 27.816 16.3431 28.944 16.3431 30.696C16.3431 32.46 15.6111 33.612 14.5431 33.612C13.4871 33.612 12.7431 32.46 12.7431 30.696C12.7431 28.944 13.4871 27.816 14.5431 27.816ZM25.0901 26.916C23.5061 26.916 22.3901 28.392 22.3901 30.696C22.3901 33.012 23.5061 34.488 25.0901 34.488C26.6621 34.488 27.7901 33.012 27.7901 30.696C27.7901 28.392 26.6621 26.916 25.0901 26.916ZM25.0901 27.816C26.1341 27.816 26.8421 28.944 26.8421 30.696C26.8421 32.46 26.1341 33.612 25.0901 33.612C24.0461 33.612 23.3381 32.46 23.3381 30.696C23.3381 28.944 24.0461 27.816 25.0901 27.816ZM30.1421 26.076V36.948H31.1261V26.076H30.1421ZM27.4661 30.216V31.032H30.5741V30.216H27.4661ZM34.2572 31.932V32.736H41.7092V31.932H34.2572ZM32.9972 34.716V35.544H42.8252V34.716H32.9972ZM34.2572 27.012V32.184H35.2652V27.828H41.5892V27.012H34.2572ZM34.9412 29.436V30.228H41.3612V29.436H34.9412Z" fill="#818181"/>
<path d="M24.0008 4.21789C25.1695 4.21789 26.1106 3.27671 26.1106 2.10809C26.1106 0.939484 25.1695 0 24.0008 0C22.8323 0 21.8928 0.939484 21.8928 2.10809C21.8928 3.27671 22.8323 4.21789 24.0008 4.21789ZM20.7146 12.5147L24.3171 14.5387L22.0006 16.5276C21.4919 16.9577 21.4827 17.5415 21.8074 17.9055C22.1415 18.2789 22.7218 18.3483 23.2527 17.8978L26.5368 15.0985C27.0008 14.7019 26.9282 13.8591 26.37 13.4959L22.8191 11.1685L23.5168 8.72551C23.6058 8.39947 23.9815 8.35412 24.1765 8.63986L25.2248 10.1746C25.4795 10.5395 25.947 10.6823 26.365 10.4891L29.384 9.14594C29.9327 8.89896 30.1404 8.41263 29.9029 7.91091C29.6592 7.42199 29.184 7.27243 28.6353 7.51605L26.2692 8.56184L24.6369 6.30868C23.77 5.11354 22.6912 4.63044 20.9367 4.76212L17.5929 4.99897C17.0475 5.03829 16.6714 5.39384 16.5928 5.95971L16.1439 9.34893C16.0576 9.9575 16.3644 10.384 16.9105 10.4438C17.4593 10.4926 17.8148 10.1763 17.8952 9.56773L18.2996 6.82376L19.6157 6.72969C19.8972 6.70486 20.1651 6.89995 20.0684 7.24308L19.2903 9.96537C18.8252 11.6025 19.8938 12.0487 20.7146 12.5147ZM14.3389 20.733C14.7123 21.05 15.2756 21.0724 15.7637 20.6013L18.8469 17.5464C19.111 17.2839 19.1691 17.2207 19.329 16.8188L20.5964 13.5384L20.2471 13.3471C19.5221 12.9547 19.01 12.5511 18.6612 12.1211L17.5487 16.059L14.3543 19.2406C13.844 19.7399 13.9262 20.374 14.3389 20.733Z" fill="#818181"/>
</svg>
