<svg width="44" height="39" viewBox="0 0 44 39" fill="none" xmlns="http://www.w3.org/2000/svg">
<path d="M15.5206 20H28.4794C30.8015 20 32 18.8015 32 16.5115V3.4885C32 1.1985 30.8015 0 28.4794 0H15.5206C13.2092 0 12 1.1878 12 3.4885V16.5115C12 18.8015 13.2092 20 15.5206 20ZM15.6597 17.8705C14.6752 17.8705 14.1295 17.3569 14.1295 16.3189V3.68111C14.1295 2.64312 14.6752 2.12948 15.6597 2.12948H28.3403C29.3141 2.12948 29.8705 2.64312 29.8705 3.68111V16.3189C29.8705 17.3569 29.3141 17.8705 28.3403 17.8705H15.6597ZM17.6929 3.98074C16.8475 3.98074 16.2055 4.6549 16.2055 5.57517C16.2055 6.99839 17.7678 8.1862 18.6774 8.80685C18.7737 8.88175 18.8807 8.92456 18.9556 8.92456C19.0305 8.92456 19.1268 8.87105 19.2231 8.80685C20.1434 8.2611 21.6843 6.99839 21.6843 5.57517C21.6843 4.6549 21.0423 3.98074 20.1755 3.98074C19.6297 3.98074 19.191 4.31247 18.9449 4.77261C18.6988 4.31247 18.2707 3.98074 17.6929 3.98074ZM16.901 12.0064H27.1097C27.5056 12.0064 27.7945 11.7068 27.7945 11.3216C27.7945 10.947 27.5056 10.6581 27.1097 10.6581H16.901C16.5051 10.6581 16.2055 10.947 16.2055 11.3216C16.2055 11.7068 16.5051 12.0064 16.901 12.0064ZM16.901 15.5163H24.4559C24.8411 15.5163 25.13 15.2274 25.13 14.8529C25.13 14.4676 24.8411 14.1573 24.4559 14.1573H16.901C16.5051 14.1573 16.2055 14.4676 16.2055 14.8529C16.2055 15.2274 16.5051 15.5163 16.901 15.5163Z" fill="#818181"/>
<path d="M3.42 26.604V27.66C3.42 29.28 2.328 30.78 0.684 31.38L1.188 32.172C3.024 31.476 4.248 29.712 4.248 27.66V26.604H3.42ZM3.6 26.604V27.66C3.6 29.652 4.824 31.308 6.636 31.968L7.14 31.188C5.532 30.624 4.416 29.22 4.416 27.66V26.604H3.6ZM2.244 33.168V33.984H8.484V36.936H9.492V33.168H2.244ZM8.484 26.088V32.616H9.492V26.088H8.484ZM18.8151 26.076V33.936H19.8111V26.076H18.8151ZM19.5111 29.304V30.132H21.4191V29.304H19.5111ZM11.8911 31.2V32.028H12.7311C15.0111 32.028 16.2951 31.956 17.7831 31.644L17.6751 30.84C16.2231 31.14 14.9631 31.2 12.7311 31.2H11.8911ZM11.8911 27.012V31.644H12.8751V27.84H16.6791V27.012H11.8911ZM13.0551 35.88V36.696H20.3031V35.88H13.0551ZM13.0551 33.156V36.252H14.0511V33.156H13.0551ZM22.7741 26.928V27.744H27.5741V26.928H22.7741ZM24.4061 29.352V32.064H25.3901V29.352H24.4061ZM27.1781 26.928V27.504C27.1781 28.2 27.1781 29.184 26.9021 30.612L27.8741 30.72C28.1621 29.292 28.1621 28.212 28.1621 27.504V26.928H27.1781ZM29.6381 26.088V34.26H30.6341V26.088H29.6381ZM30.1781 29.616V30.444H32.1821V29.616H30.1781ZM23.7821 35.88V36.696H30.9821V35.88H23.7821ZM23.7821 33.504V36.132H24.7661V33.504H23.7821ZM22.2221 32.532C24.1301 32.532 26.7221 32.484 28.9781 32.088L28.9061 31.368C26.7101 31.668 24.0461 31.716 22.1141 31.716L22.2221 32.532ZM40.8932 26.076V36.948H41.8892V26.076H40.8932ZM33.6212 33.504V34.332H34.5212C36.3812 34.332 38.0132 34.26 39.9812 33.936L39.8732 33.12C37.9532 33.432 36.3332 33.504 34.5212 33.504H33.6212ZM33.5972 27.096V27.912H37.6052V30.156H33.6212V33.816H34.6172V30.972H38.6132V27.096H33.5972Z" fill="#818181"/>
</svg>
