<svg width="25" height="26" viewBox="0 0 25 26" fill="none" xmlns="http://www.w3.org/2000/svg">
<path d="M12.8034 19.9413L12.5 19.7096L12.1966 19.9413L6.32888 24.4213L6.3222 24.4265L6.31569 24.4318C6.11014 24.6 5.91049 24.6637 5.70077 24.6554L5.69924 24.6553C5.44524 24.6459 5.23581 24.5749 5.05565 24.4488L4.76892 24.8584L5.05565 24.4488C4.87023 24.319 4.72091 24.1403 4.61001 23.8974L4.60943 23.8962C4.52516 23.713 4.51124 23.5063 4.60544 23.2425L4.60916 23.2321L4.61241 23.2215L6.87226 15.8869L6.97871 15.5414L6.68398 15.3321L0.935227 11.2485L0.929187 11.2442L0.923023 11.2401C0.702552 11.0931 0.586345 10.9198 0.53817 10.7111C0.477474 10.4481 0.49225 10.2306 0.560518 10.0429C0.633123 9.8432 0.763071 9.65507 0.96944 9.47911C1.13693 9.33723 1.33712 9.26189 1.59719 9.26189H8.69393H9.0652L9.17257 8.90648L11.4683 1.30693C11.5712 1.02428 11.7185 0.832769 11.8992 0.703529C12.098 0.561664 12.2947 0.5 12.5 0.5C12.7052 0.5 12.9019 0.561635 13.1006 0.703425C13.2814 0.832667 13.4288 1.0242 13.5317 1.30693L15.8274 8.90648L15.9348 9.26189H16.3061H23.4028C23.6628 9.26189 23.863 9.33719 24.0304 9.47901C24.2369 9.65499 24.3669 9.84316 24.4395 10.0429C24.5078 10.2306 24.5225 10.4481 24.4618 10.7111C24.4137 10.9198 24.2974 11.0931 24.077 11.2401L24.0708 11.2442L24.0648 11.2485L18.316 15.3321L18.0213 15.5414L18.1277 15.8869L20.3876 23.2215L20.3908 23.2321L20.3946 23.2425C20.4888 23.5064 20.4754 23.7134 20.392 23.8966C20.28 24.1398 20.13 24.3188 19.9444 24.4488C19.7642 24.5749 19.5548 24.6459 19.3008 24.6553L19.2992 24.6554C19.0895 24.6637 18.8899 24.6 18.6843 24.4318L18.6778 24.4265L18.6711 24.4213L12.8034 19.9413Z" stroke="#FECE22"/>
</svg>
