<svg width="44" height="37" viewBox="0 0 44 37" fill="none" xmlns="http://www.w3.org/2000/svg">
<path d="M31.6282 10.1213C31.9378 10.3184 32.332 10.2409 32.5501 9.92422C33.4651 8.62921 34 6.89783 34 5.11719C34 3.3295 33.4721 1.59109 32.5501 0.30311C32.332 -0.0136055 31.9378 -0.0910248 31.6282 0.113081C31.2974 0.317186 31.2481 0.732436 31.4944 1.09842C32.2405 2.18933 32.6698 3.6251 32.6698 5.11719C32.6698 6.60223 32.2334 8.03097 31.4944 9.12891C31.2551 9.4949 31.2974 9.91015 31.6282 10.1213ZM23.5413 8.45326C25.2375 8.45326 26.617 6.95414 26.617 5.11719C26.617 3.30135 25.2446 1.85854 23.5413 1.85854C21.8452 1.85854 20.4516 3.32246 20.4587 5.12422C20.4657 6.96117 21.8381 8.45326 23.5413 8.45326ZM28.8129 8.24211C29.1085 8.43214 29.5026 8.36176 29.7138 8.05912C30.2839 7.299 30.6147 6.22921 30.6147 5.11719C30.6147 3.99812 30.2839 2.93537 29.7138 2.16821C29.5026 1.86557 29.1085 1.79519 28.8129 1.9993C28.4751 2.21748 28.4117 2.63273 28.6792 3.02686C29.0733 3.57584 29.2915 4.32892 29.2915 5.11719C29.2915 5.89842 29.0663 6.64446 28.6792 7.20751C28.4188 7.60164 28.4751 8.00985 28.8129 8.24211ZM15.3842 8.61513C16.8622 8.61513 18.0657 7.299 18.0657 5.68024C18.0657 4.09666 16.8692 2.81572 15.3842 2.81572C13.9132 2.81572 12.7026 4.11777 12.7026 5.68727C12.7097 7.30604 13.9132 8.61513 15.3842 8.61513ZM23.5413 7.2427C22.5631 7.2427 21.7326 6.31367 21.7326 5.12422C21.7326 3.96997 22.556 3.07613 23.5413 3.07613C24.5267 3.07613 25.3431 3.9559 25.3431 5.11719C25.3431 6.29959 24.5196 7.2427 23.5413 7.2427ZM15.3842 7.41865C14.5818 7.41865 13.9062 6.6515 13.9062 5.68727C13.8991 4.76528 14.5818 4.0122 15.3842 4.0122C16.2076 4.0122 16.8762 4.7512 16.8762 5.68024C16.8762 6.6515 16.1935 7.41865 15.3842 7.41865ZM11.5062 15.0832H16.9748C16.5947 14.865 16.3413 14.3582 16.3906 13.8937H11.4287C11.295 13.8937 11.2387 13.8374 11.2387 13.7107C11.2387 12.092 13.139 10.5436 15.3842 10.5436C16.1724 10.5436 16.9607 10.7406 17.573 11.0855C17.8123 10.7477 18.1009 10.4591 18.4809 10.2057C17.5941 9.64974 16.4821 9.35414 15.3842 9.35414C12.407 9.35414 10 11.4867 10 13.8233C10 14.6538 10.4997 15.0832 11.5062 15.0832ZM19.1496 15.0832H27.9261C29.1367 15.0832 29.7208 14.7031 29.7208 13.8796C29.7208 11.9512 27.3138 9.36117 23.5343 9.36117C19.7548 9.36117 17.3478 11.9512 17.3478 13.8796C17.3478 14.7031 17.932 15.0832 19.1496 15.0832ZM18.9103 13.8656C18.7484 13.8656 18.685 13.8163 18.685 13.6826C18.685 12.6057 20.4235 10.5788 23.5343 10.5788C26.6452 10.5788 28.3906 12.6057 28.3906 13.6826C28.3906 13.8163 28.3202 13.8656 28.1584 13.8656H18.9103Z" fill="#818181"/>
<path d="M0.588 29.584V30.4H10.428V29.584H0.588ZM5.076 30.1V32.596H6.084V30.1H5.076ZM1.836 33.868V34.696H9.336V33.868H1.836ZM1.836 31.528V34.096H2.832V31.528H1.836ZM5.496 24.352C3.192 24.352 1.692 25.192 1.692 26.536C1.692 27.88 3.192 28.72 5.496 28.72C7.788 28.72 9.3 27.88 9.3 26.536C9.3 25.192 7.788 24.352 5.496 24.352ZM5.496 25.168C7.152 25.168 8.244 25.696 8.244 26.536C8.244 27.388 7.152 27.904 5.496 27.904C3.84 27.904 2.748 27.388 2.748 26.536C2.748 25.696 3.84 25.168 5.496 25.168ZM11.3991 29.428V30.244H21.2031V29.428H11.3991ZM15.8031 27.688V29.764H16.7871V27.688H15.8031ZM12.6351 27.376V28.192H20.0631V27.376H12.6351ZM12.6351 24.58V27.856H13.6191V25.384H19.9791V24.58H12.6351ZM16.2831 31.024C13.9671 31.024 12.5631 31.732 12.5631 32.968C12.5631 34.228 13.9671 34.924 16.2831 34.924C18.5991 34.924 20.0031 34.228 20.0031 32.968C20.0031 31.732 18.5991 31.024 16.2831 31.024ZM16.2831 31.792C17.9871 31.792 18.9951 32.224 18.9951 32.968C18.9951 33.724 17.9871 34.144 16.2831 34.144C14.5911 34.144 13.5711 33.724 13.5711 32.968C13.5711 32.224 14.5911 31.792 16.2831 31.792ZM30.0821 24.1V32.116H31.0901V24.1H30.0821ZM24.1181 33.88V34.696H31.4141V33.88H24.1181ZM24.1181 31.36V34.312H25.1021V31.36H24.1181ZM25.1381 26.164V26.62C25.1381 28.12 24.0221 29.488 22.4141 30.016L22.9061 30.796C24.7181 30.172 25.9541 28.564 25.9541 26.62V26.164H25.1381ZM25.3061 26.164V26.62C25.3061 28.48 26.5541 30.016 28.3901 30.604L28.8701 29.824C27.2501 29.32 26.1221 28.036 26.1221 26.62V26.164H25.3061ZM22.6661 25.54V26.344H28.5701V25.54H22.6661ZM25.1381 24.136V25.924H26.1221V24.136H25.1381ZM34.2212 24.796V25.6H41.0012V24.796H34.2212ZM32.9972 29.452V30.268H42.8012V29.452H32.9972ZM37.3772 29.992V34.948H38.3732V29.992H37.3772ZM40.5332 24.796V25.732C40.5332 26.824 40.5332 28.084 40.1132 29.836L41.0972 29.968C41.5052 28.132 41.5052 26.86 41.5052 25.732V24.796H40.5332Z" fill="#818181"/>
</svg>
