<svg width="170" height="220" viewBox="0 0 170 220" fill="none" xmlns="http://www.w3.org/2000/svg">
<rect x="0.5" y="0.5" width="169" height="219" rx="7.5" stroke="#D9D9D9"/>
<path d="M66.4891 151.61V165.17H67.6891V151.61H66.4891ZM61.5541 156.47V157.505H64.1491V156.47H61.5541ZM63.7741 151.925V164.48H64.9441V151.925H63.7741ZM58.9441 153.71V155.435C58.9441 157.925 57.8941 160.4 56.0041 161.54L56.7691 162.47C58.7641 161.21 59.9041 158.405 59.9041 155.435V153.71H58.9441ZM59.1991 153.71V155.435C59.1991 158.27 60.2941 160.94 62.2741 162.14L63.0391 161.225C61.1791 160.145 60.1591 157.79 60.1591 155.435V153.71H59.1991ZM56.3791 153.185V154.22H62.5741V153.185H56.3791ZM78.9079 151.595V165.17H80.1679V151.595H78.9079ZM79.8229 157.1V158.135H82.3279V157.1H79.8229ZM75.4429 153.065V153.26C75.4429 156.845 73.5679 159.74 69.8179 161.645L70.5079 162.605C74.8879 160.4 76.6579 156.92 76.6579 153.065H75.4429ZM70.4479 153.065V154.085H76.0879V153.065H70.4479ZM90.5582 153.005V154.085C90.5582 156.005 89.1782 157.775 87.1382 158.495L87.7832 159.47C90.0632 158.66 91.5932 156.575 91.5932 154.085V153.005H90.5582ZM90.7982 153.005V154.085C90.7982 156.455 92.3582 158.45 94.6082 159.215L95.2532 158.24C93.2432 157.565 91.8332 155.915 91.8332 154.085V153.005H90.7982ZM96.8132 151.61V159.815H98.0732V151.61H96.8132ZM89.0132 160.535V161.555H96.8132V165.17H98.0732V160.535H89.0132ZM87.4682 152.555V153.56H94.8932V152.555H87.4682ZM107.747 154.895V155.915H110.762V154.895H107.747ZM110.417 151.61V158.975H111.662V151.61H110.417ZM102.977 159.635V164.99H111.662V159.635H110.432V161.285H104.207V159.635H102.977ZM104.207 162.29H110.432V163.97H104.207V162.29ZM103.967 152.675V153.785C103.967 155.705 102.572 157.505 100.547 158.21L101.192 159.215C103.457 158.375 104.987 156.245 104.987 153.785V152.675H103.967ZM104.207 152.675V153.77C104.207 156.05 105.662 158.09 107.867 158.885L108.497 157.91C106.532 157.22 105.212 155.525 105.212 153.77V152.675H104.207ZM100.937 152.42V153.425H108.182V152.42H100.937ZM74.0618 171.61V178.51H75.3068V171.61H74.0618ZM74.9618 174.64V175.675H77.3168V174.64H74.9618ZM70.2968 172.27V172.93C70.2968 175.21 68.3318 177.025 64.8068 177.805L65.2718 178.84C69.2018 177.91 71.6468 175.675 71.6468 172.27H70.2968ZM65.3918 172.27V173.29H71.0318V172.27H65.3918ZM66.6968 179.125V180.115H74.0918V181.525H66.7268V184.6H67.9568V182.485H75.3068V179.125H66.6968ZM66.7268 184.045V185.035H75.8018V184.045H66.7268ZM88.6706 171.61V185.17H89.8706V171.61H88.6706ZM82.7906 177.145V178.15H86.2106V177.145H82.7906ZM85.8506 171.955V184.48H87.0206V171.955H85.8506ZM82.9556 173.32V173.545C82.9556 176.74 81.5306 179.44 78.3356 181.36L79.0706 182.245C82.7306 180.07 84.1556 176.875 84.1556 173.32H82.9556ZM78.9356 173.32V174.34H83.4206V173.32H78.9356ZM94.9094 178.585V182.65H96.1394V178.585H94.9094ZM99.9194 178.585V182.65H101.164V178.585H99.9194ZM91.9094 182.41V183.445H104.194V182.41H91.9094ZM98.0294 172.465C95.1494 172.465 93.0944 173.83 93.0944 175.96C93.0944 178.075 95.1494 179.44 98.0294 179.44C100.894 179.44 102.949 178.075 102.949 175.96C102.949 173.83 100.894 172.465 98.0294 172.465ZM98.0294 173.455C100.204 173.455 101.749 174.445 101.749 175.96C101.749 177.46 100.204 178.45 98.0294 178.45C95.8544 178.45 94.2944 177.46 94.2944 175.96C94.2944 174.445 95.8544 173.455 98.0294 173.455Z" fill="#011E5F"/>
<path d="M117.927 102.826C117.852 102.843 117.773 102.843 117.698 102.825L90.7477 96.3658C90.6672 96.3465 90.5831 96.3475 90.503 96.3688L69.5547 101.922C68.0443 102.335 66.6471 102.219 65.3633 101.571C64.0794 100.926 63.4375 100.06 63.4375 98.9739V55.533C63.4375 54.8607 63.7215 54.266 64.2894 53.7489C64.8543 53.2317 65.6276 52.8438 66.6094 52.5853L90.51 47.0267C90.5856 47.0092 90.6643 47.0094 90.7398 47.0275L117.69 53.4867C117.77 53.506 117.854 53.505 117.934 53.4838L138.883 47.9309C140.393 47.5172 141.79 47.633 143.074 48.2784C144.358 48.9259 145 49.7926 145 50.8787V94.3195C145 94.9918 144.716 95.5866 144.148 96.1037C143.583 96.6209 142.81 97.0087 141.828 97.2673L117.927 102.826ZM112.665 95.1027C112.979 95.178 113.281 94.9397 113.281 94.6164V59.3406C113.281 59.1093 113.123 58.9082 112.898 58.8543L95.7728 54.7499C95.4584 54.6746 95.1562 54.9129 95.1562 55.2362V90.512C95.1562 90.7433 95.3148 90.9443 95.5397 90.9982L112.665 95.1027ZM122.344 94.6234C122.344 94.9445 122.642 95.1823 122.955 95.1109L135.549 92.2362C135.776 92.1843 135.937 91.982 135.937 91.7488V56.0261C135.937 55.6984 135.628 55.4593 135.311 55.5425L122.717 58.8483C122.497 58.906 122.344 59.1047 122.344 59.3319V94.6234ZM72.5 93.8265C72.5 94.1542 72.81 94.3933 73.1269 94.3101L85.7207 91.0043C85.9405 90.9466 86.0937 90.7479 86.0937 90.5206V55.2291C86.0937 54.9081 85.7955 54.6702 85.4825 54.7417L72.8887 57.6163C72.6613 57.6683 72.5 57.8705 72.5 58.1038V93.8265Z" fill="#E5E6EA"/>
<path d="M48.3267 65.0049C52.5363 65.0049 55.9546 61.5233 55.9546 57.472C55.9546 53.2308 52.5363 49.8125 48.3267 49.8125C44.1172 49.8125 40.7938 53.2308 40.7938 57.472C40.7938 61.5233 44.1172 65.0049 48.3267 65.0049ZM59.1197 125.3C60.9238 125.3 62.538 123.971 62.538 121.755C62.538 120.932 62.3164 120.172 61.8733 119.286L55.1 105.55C54.4987 104.315 53.8023 103.208 53.1693 102.321L49.023 96.4343L49.2763 95.643C50.4157 92.0032 50.8588 89.7876 51.112 86.306L51.8083 76.5259C52.1565 71.7149 49.3712 67.7902 44.3387 67.7902C40.6672 67.7902 38.0085 69.7842 34.5902 73.1076L29.3995 78.2667C27.627 80.0075 27.0573 81.4318 26.8991 83.6473L26.2344 91.6867C26.0761 93.8706 27.3105 95.2949 29.2729 95.4215C31.1403 95.5481 32.5329 94.4403 32.7545 92.0981L33.4824 83.2992L36.5526 80.5772C37.1223 80.0708 37.9452 80.3556 37.8819 81.2102L37.3122 89.1229C37.0273 92.9527 38.7048 95.738 40.6039 98.1118L47.3772 106.626C48.0419 107.449 48.1368 107.765 48.4533 108.367L55.6697 123.021C56.5243 124.73 57.7903 125.3 59.1197 125.3ZM60.6073 87.9202H68.2668C70.4824 87.9202 71.875 86.6225 71.875 84.6602C71.875 82.6978 70.4507 81.4001 68.2351 81.4001H60.2275L54.6569 75.3548L54.0555 84.0588L56.4294 86.4326C57.5688 87.572 58.6449 87.9202 60.6073 87.9202ZM28.4183 125.3C29.5261 125.3 30.5073 124.794 31.2036 123.971L41.3952 111.848C42.4397 110.582 42.5663 110.266 43.0094 109.031C43.2626 108.208 43.4841 107.417 43.674 106.658L37.8503 99.3778L36.1411 107.322L26.4876 118.78C25.6014 119.793 25 120.679 25 121.945C25 123.907 26.4876 125.3 28.4183 125.3Z" fill="#E2F3FF"/>
</svg>
