<svg width="39" height="39" viewBox="0 0 39 39" fill="none" xmlns="http://www.w3.org/2000/svg">
<path d="M8.832 26.088V36.936H9.792V26.088H8.832ZM7.08 30.444V31.26H9.156V30.444H7.08ZM4.272 27.48V27.672C4.272 30.18 3.312 32.376 0.588 33.9L1.176 34.608C4.272 32.868 5.232 30.276 5.232 27.48H4.272ZM1.008 27.48V28.308H4.608V27.48H1.008ZM6.42 26.376V36.408H7.368V26.376H6.42ZM19.2831 26.1V34.02H20.2911V26.1H19.2831ZM13.3191 35.88V36.696H20.6151V35.88H13.3191ZM13.3191 33.204V36.156H14.3031V33.204H13.3191ZM14.4711 26.844C12.8511 26.844 11.6391 27.948 11.6391 29.52C11.6391 31.08 12.8511 32.196 14.4711 32.196C16.0911 32.196 17.2911 31.08 17.2911 29.52C17.2911 27.948 16.0911 26.844 14.4711 26.844ZM14.4711 27.708C15.5271 27.708 16.3311 28.452 16.3311 29.52C16.3311 30.576 15.5271 31.32 14.4711 31.32C13.4151 31.32 12.6111 30.576 12.6111 29.52C12.6111 28.452 13.4151 27.708 14.4711 27.708ZM27.9073 27.432C29.0273 27.432 29.8433 27.652 30.3553 28.092C30.8673 28.532 31.1233 29.152 31.1233 29.952C31.1233 30.304 31.0633 30.644 30.9433 30.972C30.8313 31.292 30.6433 31.58 30.3793 31.836C30.1153 32.092 29.7633 32.296 29.3233 32.448C28.8833 32.592 28.3433 32.664 27.7033 32.664H26.7193V36H25.6393V27.432H27.9073ZM27.8113 28.356H26.7193V31.74H27.5833C28.1273 31.74 28.5793 31.684 28.9393 31.572C29.2993 31.452 29.5673 31.264 29.7433 31.008C29.9193 30.752 30.0073 30.416 30.0073 30C30.0073 29.448 29.8313 29.036 29.4793 28.764C29.1273 28.492 28.5713 28.356 27.8113 28.356ZM35.3769 36H34.2969V28.38H31.6209V27.432H38.0409V28.38H35.3769V36Z" fill="#011E5F"/>
<path d="M17.6066 4.53161C17.7325 4.53161 17.8044 4.44169 17.8314 4.32481C18.1281 2.83225 18.1101 2.79629 19.6656 2.49059C19.8005 2.46361 19.8814 2.39168 19.8814 2.2658C19.8814 2.13993 19.8005 2.068 19.6746 2.04102C18.1011 1.71734 18.1101 1.68137 17.8314 0.197808C17.8134 0.0809216 17.7325 0 17.6066 0C17.4807 0 17.4088 0.0809216 17.3908 0.197808C17.0851 1.69935 17.1121 1.7533 15.5476 2.04102C15.4217 2.059 15.3408 2.13993 15.3408 2.2658C15.3408 2.38269 15.4217 2.46361 15.5476 2.49059C17.1121 2.80528 17.1031 2.84125 17.3908 4.32481C17.4088 4.44169 17.4807 4.53161 17.6066 4.53161ZM25.3122 7.73251C25.456 7.73251 25.5459 7.62461 25.5729 7.48974C25.8966 5.74543 25.8786 5.65552 27.7128 5.34082C27.8657 5.31385 27.9646 5.22394 27.9646 5.08008C27.9646 4.93622 27.8657 4.8463 27.7218 4.81933C25.8786 4.48665 25.8516 4.40573 25.5729 2.67041C25.5459 2.52655 25.456 2.42765 25.3122 2.42765C25.1683 2.42765 25.0694 2.52655 25.0514 2.67041C24.7367 4.42371 24.7457 4.53161 22.8935 4.81933C22.7586 4.83731 22.6507 4.93622 22.6507 5.08008C22.6597 5.22394 22.7496 5.31385 22.8935 5.34082C24.7457 5.66451 24.7637 5.75442 25.0514 7.48974C25.0694 7.62461 25.1683 7.73251 25.3122 7.73251ZM12.6524 10.4299C12.7963 10.4299 12.8952 10.331 12.9132 10.1871C13.2009 8.44282 13.2279 8.3529 15.0621 8.03821C15.206 8.01124 15.3049 7.92132 15.3049 7.77746C15.3049 7.6336 15.206 7.54369 15.0711 7.51671C13.2189 7.18404 13.2189 7.10312 12.9132 5.3678C12.8862 5.22394 12.7963 5.12503 12.6524 5.12503C12.5086 5.12503 12.4187 5.22394 12.3917 5.3678C12.104 7.1211 12.086 7.21101 10.2428 7.51671C10.0989 7.54369 10 7.6336 10 7.77746C10 7.92132 10.0989 8.01124 10.2338 8.03821C12.086 8.3619 12.086 8.4608 12.3917 10.1961C12.4187 10.331 12.5086 10.4299 12.6524 10.4299ZM28.0455 18.1444C28.4861 18.594 29.2414 18.585 29.6729 18.1444C30.1135 17.6859 30.1045 16.9666 29.6729 16.517L21.1312 7.93031C20.6906 7.48974 19.9354 7.48974 19.5038 7.93031C19.0632 8.38887 19.0722 9.11716 19.5038 9.55774L28.0455 18.1444ZM22.9744 11.9135L20.268 9.20708C20.0882 9.01826 20.0253 8.80247 20.2051 8.62264C20.367 8.4608 20.5917 8.50576 20.7895 8.69457L23.4869 11.4009L22.9744 11.9135ZM16.9862 18.3692C17.175 18.3692 17.3099 18.2433 17.3369 18.0365C17.6246 15.6089 17.7415 15.5369 20.2141 15.1503C20.4389 15.1144 20.5738 14.9975 20.5738 14.7997C20.5738 14.6108 20.4389 14.485 20.2591 14.449C17.7505 13.9635 17.6246 13.9814 17.3369 11.5628C17.3099 11.356 17.175 11.2301 16.9862 11.2301C16.7974 11.2301 16.6625 11.356 16.6356 11.5538C16.3299 14.0174 16.24 14.1073 13.7224 14.449C13.5426 14.467 13.3987 14.6108 13.3987 14.7997C13.3987 14.9885 13.5336 15.1144 13.7134 15.1503C16.2489 15.6358 16.3209 15.6358 16.6356 18.0545C16.6625 18.2433 16.7974 18.3692 16.9862 18.3692Z" fill="#011E5F"/>
</svg>
