<svg width="25" height="26" viewBox="0 0 25 26" fill="none" xmlns="http://www.w3.org/2000/svg">
<path d="M12.5 20.3387L6.63231 24.8188C6.34156 25.0566 6.02439 25.1687 5.68079 25.155C5.33718 25.1423 5.03323 25.0434 4.76892 24.8584C4.50461 24.6734 4.30003 24.4223 4.15519 24.1051C4.00929 23.7879 4.00242 23.4443 4.13457 23.0743L6.39443 15.7397L0.645673 11.6561C0.3285 11.4446 0.130267 11.1671 0.0509741 10.8235C-0.028319 10.4799 -0.0151034 10.1627 0.0906208 9.872C0.196345 9.58125 0.381362 9.32329 0.645673 9.0981C0.909983 8.87396 1.22716 8.76189 1.59719 8.76189H8.69393L10.9934 1.14975C11.1256 0.779716 11.3307 0.495318 11.6087 0.296557C11.8857 0.0988526 12.1828 0 12.5 0C12.8172 0 13.1143 0.0988526 13.3913 0.296557C13.6693 0.495318 13.8744 0.779716 14.0066 1.14975L16.3061 8.76189H23.4028C23.7728 8.76189 24.09 8.87396 24.3543 9.0981C24.6186 9.32329 24.8037 9.58125 24.9094 9.872C25.0151 10.1627 25.0283 10.4799 24.949 10.8235C24.8697 11.1671 24.6715 11.4446 24.3543 11.6561L18.6056 15.7397L20.8654 23.0743C20.9976 23.4443 20.9912 23.7879 20.8464 24.1051C20.7005 24.4223 20.4954 24.6734 20.2311 24.8584C19.9668 25.0434 19.6628 25.1423 19.3192 25.155C18.9756 25.1687 18.6584 25.0566 18.3677 24.8188L12.5 20.3387Z" fill="#FECE22"/>
</svg>
