<svg width="18" height="17" viewBox="0 0 18 17" fill="none" xmlns="http://www.w3.org/2000/svg">
<path d="M0 5.49316C0 9.24609 3.15527 12.9551 8.05957 16.1191C8.33203 16.2949 8.66602 16.4707 8.89453 16.4707C9.12305 16.4707 9.45703 16.2949 9.72949 16.1191C14.6426 12.9551 17.7891 9.24609 17.7891 5.49316C17.7891 2.25 15.5479 0 12.6738 0C10.9951 0 9.68555 0.764648 8.89453 1.9248C8.12109 0.773438 6.80273 0 5.12402 0C2.24121 0 0 2.25 0 5.49316ZM1.81055 5.48438C1.81055 3.26953 3.26953 1.7666 5.22949 1.7666C6.81152 1.7666 7.69922 2.72461 8.25293 3.55957C8.49902 3.91992 8.66602 4.03418 8.89453 4.03418C9.13184 4.03418 9.28125 3.91113 9.53613 3.55957C10.1338 2.74219 10.9863 1.7666 12.5596 1.7666C14.5283 1.7666 15.9873 3.26953 15.9873 5.48438C15.9873 8.57812 12.7705 12.0059 9.06152 14.4668C8.98242 14.5195 8.92969 14.5547 8.89453 14.5547C8.85938 14.5547 8.80664 14.5195 8.73633 14.4668C5.02734 12.0059 1.81055 8.57812 1.81055 5.48438Z" fill="#011E5F"/>
</svg>
