<svg width="170" height="220" viewBox="0 0 170 220" fill="none" xmlns="http://www.w3.org/2000/svg">
<rect x="1" y="1" width="168" height="218" rx="7" stroke="#007AFF" stroke-width="2"/>
<path d="M99.115 118.549C99.0394 118.567 98.9607 118.567 98.8852 118.549L70.1227 111.655C70.0422 111.636 69.9581 111.637 69.878 111.658L47.525 117.583C45.9139 118.024 44.4236 117.9 43.0542 117.209C41.6847 116.521 41 115.597 41 114.439V68.1019C41 67.3848 41.3029 66.7504 41.9087 66.1988C42.5112 65.6471 43.3361 65.2334 44.3833 64.9576L69.885 59.0267C69.9606 59.0092 70.0393 59.0094 70.1148 59.0275L98.8773 65.9211C98.9578 65.9404 99.0419 65.9394 99.122 65.9182L121.475 59.9929C123.086 59.5516 124.576 59.6752 125.946 60.3636C127.315 61.0543 128 61.9788 128 63.1372V109.474C128 110.191 127.697 110.826 127.091 111.377C126.489 111.929 125.664 112.343 124.617 112.618L99.115 118.549ZM93.5501 110.319C93.8645 110.395 94.1667 110.156 94.1667 109.833V72.137C94.1667 71.9057 94.0081 71.7047 93.7832 71.6508L75.4499 67.2567C75.1355 67.1814 74.8333 67.4197 74.8333 67.743V105.439C74.8333 105.67 74.9919 105.871 75.2168 105.925L93.5501 110.319ZM103.833 109.84C103.833 110.161 104.132 110.399 104.445 110.328L117.945 107.246C118.172 107.194 118.333 106.992 118.333 106.759V68.5846C118.333 68.2569 118.023 68.0178 117.706 68.101L104.206 71.6447C103.987 71.7024 103.833 71.9011 103.833 72.1284V109.84ZM50.6667 108.991C50.6667 109.319 50.9766 109.558 51.2936 109.475L64.7936 105.931C65.0134 105.874 65.1667 105.675 65.1667 105.448V67.736C65.1667 67.4149 64.8684 67.177 64.5554 67.2485L51.0554 70.33C50.828 70.3819 50.6667 70.5842 50.6667 70.8175V108.991Z" fill="#E5E6EA"/>
<path d="M89 51.878C90.375 51.878 91.5525 51.3904 92.5325 50.4152C93.5108 49.4417 94 48.2707 94 46.9024C94 45.5341 93.5108 44.3624 92.5325 43.3872C91.5525 42.4136 90.375 41.9268 89 41.9268C87.625 41.9268 86.4483 42.4136 85.47 43.3872C84.49 44.3624 84 45.5341 84 46.9024C84 48.2707 84.49 49.4417 85.47 50.4152C86.4483 51.3904 87.625 51.878 89 51.878ZM89 76.7561C82.2917 71.0756 77.2817 65.799 73.97 60.9262C70.6567 56.0551 69 51.5463 69 47.4C69 41.1805 71.0108 36.2256 75.0325 32.5354C79.0525 28.8451 83.7083 27 89 27C94.2917 27 98.9475 28.8451 102.967 32.5354C106.989 36.2256 109 41.1805 109 47.4C109 51.5463 107.344 56.0551 104.033 60.9262C100.719 65.799 95.7083 71.0756 89 76.7561Z" fill="#007AFF"/>
<path d="M74.1701 127.437C74.8447 127.073 75.2333 126.531 75.5527 125.567L80.3529 111.213C80.5865 110.501 80.4861 109.874 80.2413 109.42C79.9899 108.954 79.5281 108.538 78.8049 108.342L64.2071 104.529C63.1384 104.25 62.5267 104.231 61.8766 104.582C60.8952 105.111 60.6061 106.249 61.1221 107.206L63.4773 111.573L63.1706 111.738C54.7063 116.303 53.7115 123.854 58.5143 132.76C59.3545 134.318 60.4536 134.77 61.3123 134.307C61.9624 133.957 62.451 133.424 62.4465 132.271C62.4407 127.65 64.4684 124.862 68.9459 122.447L69.2526 122.282L71.6209 126.674C72.1369 127.63 73.2132 127.953 74.1701 127.437Z" fill="black"/>
<path d="M44.3226 151.61V165.17H45.5226V151.61H44.3226ZM39.3876 156.47V157.505H41.9826V156.47H39.3876ZM41.6076 151.925V164.48H42.7776V151.925H41.6076ZM36.7776 153.71V155.435C36.7776 157.925 35.7276 160.4 33.8376 161.54L34.6026 162.47C36.5976 161.21 37.7376 158.405 37.7376 155.435V153.71H36.7776ZM37.0326 153.71V155.435C37.0326 158.27 38.1276 160.94 40.1076 162.14L40.8726 161.225C39.0126 160.145 37.9926 157.79 37.9926 155.435V153.71H37.0326ZM34.2126 153.185V154.22H40.4076V153.185H34.2126ZM56.7414 151.595V165.17H58.0014V151.595H56.7414ZM57.6564 157.1V158.135H60.1614V157.1H57.6564ZM53.2764 153.065V153.26C53.2764 156.845 51.4014 159.74 47.6514 161.645L48.3414 162.605C52.7214 160.4 54.4914 156.92 54.4914 153.065H53.2764ZM48.2814 153.065V154.085H53.9214V153.065H48.2814ZM75.1118 151.61V165.17H76.3118V151.61H75.1118ZM72.9668 156.98V158H75.5618V156.98H72.9668ZM72.1118 151.895V164.495H73.2968V151.895H72.1118ZM65.2718 153.17V161.54H70.4468V153.17H65.2718ZM69.2768 154.16V160.55H66.4418V154.16H69.2768ZM82.0256 153.845V154.43C82.0256 156.275 80.6306 157.925 78.6056 158.585L79.2056 159.545C81.5006 158.795 83.0456 156.815 83.0456 154.43V153.845H82.0256ZM82.2356 153.845V154.43C82.2356 156.695 83.8256 158.54 86.1356 159.23L86.7056 158.24C84.6956 157.67 83.2556 156.14 83.2556 154.43V153.845H82.2356ZM78.9356 153.275V154.28H86.3156V153.275H78.9356ZM82.0256 151.61V153.71H83.2556V151.61H82.0256ZM88.2056 151.625V159.92H89.4656V151.625H88.2056ZM84.9506 160.205C82.1156 160.205 80.4056 161.105 80.4056 162.665C80.4056 164.24 82.1156 165.14 84.9506 165.14C87.7856 165.14 89.5106 164.24 89.5106 162.665C89.5106 161.105 87.7856 160.205 84.9506 160.205ZM84.9506 161.195C87.0206 161.195 88.2656 161.735 88.2656 162.665C88.2656 163.625 87.0206 164.165 84.9506 164.165C82.8956 164.165 81.6506 163.625 81.6506 162.665C81.6506 161.735 82.8956 161.195 84.9506 161.195ZM98.8509 152.315V153.695C98.8509 155.765 97.5309 157.595 95.4909 158.345L96.1509 159.35C98.4159 158.465 99.8859 156.305 99.8859 153.695V152.315H98.8509ZM99.0759 152.315V153.785C99.0759 156.14 100.561 158.15 102.736 158.96L103.396 157.985C101.446 157.31 100.096 155.615 100.096 153.785V152.315H99.0759ZM104.836 151.61V159.83H106.081V151.61H104.836ZM105.736 155.105V156.155H108.091V155.105H105.736ZM101.761 160.205C98.9859 160.205 97.3059 161.12 97.3059 162.68C97.3059 164.24 98.9859 165.14 101.761 165.14C104.536 165.14 106.216 164.24 106.216 162.68C106.216 161.12 104.536 160.205 101.761 160.205ZM101.761 161.195C103.771 161.195 105.001 161.735 105.001 162.68C105.001 163.625 103.771 164.165 101.761 164.165C99.7509 164.165 98.5209 163.625 98.5209 162.68C98.5209 161.735 99.7509 161.195 101.761 161.195ZM119.43 151.61V165.17H120.63V151.61H119.43ZM117.135 157.04V158.075H119.745V157.04H117.135ZM116.355 151.91V164.48H117.525V151.91H116.355ZM109.605 160.79V161.825H110.49C112.53 161.825 113.895 161.765 115.515 161.42L115.395 160.385C113.82 160.715 112.47 160.79 110.49 160.79H109.605ZM109.605 153.26V161.255H110.835V154.28H114.645V153.26H109.605ZM127.079 152.585C124.964 152.585 123.434 153.89 123.434 155.78C123.434 157.685 124.964 158.99 127.079 158.99C129.194 158.99 130.709 157.685 130.709 155.78C130.709 153.89 129.194 152.585 127.079 152.585ZM127.079 153.665C128.474 153.665 129.494 154.52 129.494 155.78C129.494 157.04 128.474 157.91 127.079 157.91C125.669 157.91 124.649 157.04 124.649 155.78C124.649 154.52 125.669 153.665 127.079 153.665ZM132.479 151.595V165.185H133.724V151.595H132.479ZM122.924 162.215C125.339 162.215 128.654 162.2 131.699 161.615L131.594 160.7C128.639 161.165 125.219 161.18 122.744 161.18L122.924 162.215ZM48.0553 172.945V173.515C48.0553 175.3 45.7303 176.86 43.3453 177.205L43.8253 178.195C46.5553 177.73 49.1353 175.945 49.1353 173.515V172.945H48.0553ZM48.3703 172.945V173.515C48.3703 175.945 50.9353 177.73 53.6803 178.195L54.1453 177.205C51.7753 176.86 49.4353 175.3 49.4353 173.515V172.945H48.3703ZM48.1003 179.995V185.17H49.3303V179.995H48.1003ZM42.6253 179.335V180.355H54.8803V179.335H42.6253ZM43.7653 172.45V173.455H53.6953V172.45H43.7653ZM56.1841 182.38V183.415H68.4691V182.38H56.1841ZM61.6441 179.095V182.725H62.8741V179.095H61.6441ZM61.6141 172.51V173.56C61.6141 175.795 59.0491 177.79 56.6641 178.225L57.1891 179.26C59.9191 178.69 62.6941 176.455 62.6941 173.56V172.51H61.6141ZM61.8391 172.51V173.56C61.8391 176.455 64.6141 178.69 67.3441 179.26L67.8841 178.225C65.4991 177.79 62.9191 175.81 62.9191 173.56V172.51H61.8391ZM69.7429 182.47V183.505H82.0279V182.47H69.7429ZM75.2329 179.56V182.905H76.4779V179.56H75.2329ZM71.2279 172.615V173.62H79.2829V175.72H71.2729V179.44H72.5029V176.725H80.5129V172.615H71.2279ZM71.2729 178.915V179.935H80.8279V178.915H71.2729ZM96.2282 171.61V178.51H97.4732V171.61H96.2282ZM97.1282 174.64V175.675H99.4832V174.64H97.1282ZM92.4632 172.27V172.93C92.4632 175.21 90.4982 177.025 86.9732 177.805L87.4382 178.84C91.3682 177.91 93.8132 175.675 93.8132 172.27H92.4632ZM87.5582 172.27V173.29H93.1982V172.27H87.5582ZM88.8632 179.125V180.115H96.2582V181.525H88.8932V184.6H90.1232V182.485H97.4732V179.125H88.8632ZM88.8932 184.045V185.035H97.9682V184.045H88.8932ZM110.837 171.61V185.17H112.037V171.61H110.837ZM104.957 177.145V178.15H108.377V177.145H104.957ZM108.017 171.955V184.48H109.187V171.955H108.017ZM105.122 173.32V173.545C105.122 176.74 103.697 179.44 100.502 181.36L101.237 182.245C104.897 180.07 106.322 176.875 106.322 173.32H105.122ZM101.102 173.32V174.34H105.587V173.32H101.102ZM117.076 178.585V182.65H118.306V178.585H117.076ZM122.086 178.585V182.65H123.331V178.585H122.086ZM114.076 182.41V183.445H126.361V182.41H114.076ZM120.196 172.465C117.316 172.465 115.261 173.83 115.261 175.96C115.261 178.075 117.316 179.44 120.196 179.44C123.061 179.44 125.116 178.075 125.116 175.96C125.116 173.83 123.061 172.465 120.196 172.465ZM120.196 173.455C122.371 173.455 123.916 174.445 123.916 175.96C123.916 177.46 122.371 178.45 120.196 178.45C118.021 178.45 116.461 177.46 116.461 175.96C116.461 174.445 118.021 173.455 120.196 173.455Z" fill="#011E5F"/>
</svg>
