<svg width="170" height="220" viewBox="0 0 170 220" fill="none" xmlns="http://www.w3.org/2000/svg">
<rect x="0.5" y="0.5" width="169" height="219" rx="7.5" stroke="#D9D9D9"/>
<path d="M44.7003 158.915V159.92H54.0153V158.915H44.7003ZM43.1253 162.395V163.43H55.4103V162.395H43.1253ZM44.7003 152.765V159.23H45.9603V153.785H53.8653V152.765H44.7003ZM45.5553 155.795V156.785H53.5803V155.795H45.5553ZM57.1191 160.805V161.84H58.0191C59.7291 161.84 61.2591 161.78 63.1641 161.45L63.0591 160.43C61.1991 160.745 59.6691 160.805 58.0191 160.805H57.1191ZM57.0891 153.095V154.115H60.7341V156.815H57.1191V161.225H58.3341V157.82H61.9341V153.095H57.0891ZM66.9891 151.61V165.17H68.1891V151.61H66.9891ZM62.5791 156.47V157.505H64.7691V156.47H62.5791ZM64.2591 151.94V164.465H65.4141V151.94H64.2591ZM80.0829 151.595V165.185H81.3279V151.595H80.0829ZM74.1729 152.645C72.1779 152.645 70.7379 154.49 70.7379 157.37C70.7379 160.265 72.1779 162.11 74.1729 162.11C76.1829 162.11 77.6229 160.265 77.6229 157.37C77.6229 154.49 76.1829 152.645 74.1729 152.645ZM74.1729 153.77C75.5079 153.77 76.4229 155.18 76.4229 157.37C76.4229 159.575 75.5079 161.015 74.1729 161.015C72.8529 161.015 71.9229 159.575 71.9229 157.37C71.9229 155.18 72.8529 153.77 74.1729 153.77ZM93.7318 151.61V165.2H94.9768V151.61H93.7318ZM89.5618 156.08V157.1H94.1368V156.08H89.5618ZM84.5368 153.125V161.525H85.7668V153.125H84.5368ZM84.5368 160.865V161.915H85.5868C87.7318 161.915 89.6368 161.78 91.7968 161.36L91.6468 160.31C89.5618 160.745 87.6868 160.865 85.5868 160.865H84.5368ZM107.216 151.61V159.29H108.461V151.61H107.216ZM98.2006 152.39V157.91H99.4306V152.39H98.2006ZM98.2006 157.22V158.27H99.2956C101.636 158.27 103.676 158.12 105.926 157.64L105.746 156.62C103.586 157.07 101.561 157.22 99.2956 157.22H98.2006ZM99.7006 159.95V164.99H108.461V159.95H99.7006ZM107.246 160.94V163.97H100.916V160.94H107.246ZM120.759 151.595V165.185H122.004V151.595H120.759ZM114.849 152.645C112.854 152.645 111.414 154.49 111.414 157.37C111.414 160.265 112.854 162.11 114.849 162.11C116.859 162.11 118.299 160.265 118.299 157.37C118.299 154.49 116.859 152.645 114.849 152.645ZM114.849 153.77C116.184 153.77 117.099 155.18 117.099 157.37C117.099 159.575 116.184 161.015 114.849 161.015C113.529 161.015 112.599 159.575 112.599 157.37C112.599 155.18 113.529 153.77 114.849 153.77ZM61.9323 178.45V181.69H63.1773V178.45H61.9323ZM62.5473 172.48C60.4623 172.48 58.9623 173.785 58.9623 175.675C58.9623 177.565 60.4623 178.87 62.5473 178.87C64.6323 178.87 66.1323 177.565 66.1323 175.675C66.1323 173.785 64.6323 172.48 62.5473 172.48ZM62.5473 173.545C63.9273 173.545 64.9173 174.415 64.9173 175.675C64.9173 176.935 63.9273 177.805 62.5473 177.805C61.1673 177.805 60.1773 176.935 60.1773 175.675C60.1773 174.415 61.1673 173.545 62.5473 173.545ZM67.6773 171.61V185.17H68.9223V171.61H67.6773ZM68.5623 177.19V178.24H71.0673V177.19H68.5623ZM58.5273 182.245C60.8973 182.245 64.0623 182.215 66.9273 181.735L66.8223 180.805C64.0623 181.18 60.7923 181.195 58.3473 181.21L58.5273 182.245ZM77.5012 172.945V173.515C77.5012 175.3 75.1762 176.86 72.7912 177.205L73.2712 178.195C76.0012 177.73 78.5812 175.945 78.5812 173.515V172.945H77.5012ZM77.8162 172.945V173.515C77.8162 175.945 80.3812 177.73 83.1262 178.195L83.5912 177.205C81.2212 176.86 78.8812 175.3 78.8812 173.515V172.945H77.8162ZM77.5462 179.995V185.17H78.7762V179.995H77.5462ZM72.0712 179.335V180.355H84.3262V179.335H72.0712ZM73.2112 172.45V173.455H83.1412V172.45H73.2112ZM90.97 176.455V177.49H93.565V176.455H90.97ZM88.435 172.885V175.465C88.435 177.79 87.325 180.22 85.465 181.315L86.245 182.26C88.225 181.045 89.41 178.3 89.41 175.465V172.885H88.435ZM88.675 172.885V175.42C88.675 178.06 89.77 180.76 91.72 181.96L92.44 180.985C90.655 179.905 89.635 177.595 89.635 175.42V172.885H88.675ZM95.95 171.61V185.17H97.15V171.61H95.95ZM93.205 171.895V184.495H94.375V171.895H93.205ZM102.189 178.585V182.65H103.419V178.585H102.189ZM107.199 178.585V182.65H108.444V178.585H107.199ZM99.1888 182.41V183.445H111.474V182.41H99.1888ZM105.309 172.465C102.429 172.465 100.374 173.83 100.374 175.96C100.374 178.075 102.429 179.44 105.309 179.44C108.174 179.44 110.229 178.075 110.229 175.96C110.229 173.83 108.174 172.465 105.309 172.465ZM105.309 173.455C107.484 173.455 109.029 174.445 109.029 175.96C109.029 177.46 107.484 178.45 105.309 178.45C103.134 178.45 101.574 177.46 101.574 175.96C101.574 174.445 103.134 173.455 105.309 173.455Z" fill="#011E5F"/>
<path d="M87.2311 97.5599C87.1554 97.5775 87.0768 97.5772 87.0013 97.5591L60.1807 91.1309C60.1002 91.1116 60.0161 91.1126 59.9361 91.1338L39.0881 96.6602C37.5848 97.0719 36.1944 96.9556 34.9166 96.3112C33.6389 95.6689 33 94.8073 33 93.7264V50.4924C33 49.8233 33.2826 49.2314 33.8478 48.7167C34.41 48.202 35.1797 47.816 36.1568 47.5587L59.943 42.0267C60.0187 42.0092 60.0973 42.0094 60.1728 42.0275L86.9934 48.4557C87.0739 48.475 87.158 48.474 87.238 48.4528L108.086 42.9264C109.589 42.5147 110.98 42.63 112.257 43.2723C113.535 43.9167 114.174 44.7793 114.174 45.8602V89.0942C114.174 89.7633 113.892 90.3552 113.326 90.8699C112.764 91.3846 111.994 91.7706 111.017 92.028L87.2311 97.5599ZM81.9899 89.8729C82.3042 89.9482 82.6064 89.7099 82.6064 89.3867V54.2837C82.6064 54.0524 82.4478 53.8514 82.2229 53.7975L65.1842 49.7137C64.8699 49.6384 64.5677 49.8767 64.5677 50.2V85.3029C64.5677 85.5342 64.7263 85.7353 64.9512 85.7892L81.9899 89.8729ZM91.6257 89.3937C91.6257 89.7147 91.924 89.9526 92.237 89.8811L104.766 87.0212C104.993 86.9693 105.155 86.7671 105.155 86.5338V50.9862C105.155 50.6585 104.845 50.4194 104.528 50.5026L91.9988 53.7914C91.779 53.8491 91.6257 54.0478 91.6257 54.275V89.3937ZM42.0193 88.6004C42.0193 88.9281 42.3293 89.1672 42.6463 89.084L55.1753 85.7952C55.3951 85.7375 55.5484 85.5388 55.5484 85.3116V50.1929C55.5484 49.8719 55.2501 49.634 54.9371 49.7055L42.4081 52.5654C42.1807 52.6173 42.0193 52.8196 42.0193 53.0528V88.6004Z" fill="#E5E6EA"/>
<path d="M115.936 128.797C117.967 128.797 119.443 127.505 119.443 125.075V101.481C119.443 100.435 119.935 99.8196 120.766 99.8196C121.596 99.8196 122.119 100.435 122.119 101.481V125.075C122.119 127.505 123.596 128.797 125.626 128.797C127.626 128.797 129.102 127.505 129.102 125.075V85.208C129.102 84.3774 129.502 83.8853 130.179 83.8853C130.825 83.8853 131.255 84.3774 131.255 85.208V101.573C131.255 103.757 132.547 104.987 134.393 104.987C136.239 104.987 137.5 103.757 137.5 101.573V85.5771C137.5 75.8258 131.994 73.3034 121.074 73.3034H116.336C114.214 73.3034 113.137 72.9958 111.445 71.7654L107.385 68.9046L106.647 57.3999C106.493 55.1851 105.078 54.0161 103.232 54.1392C101.356 54.2315 100.064 55.585 100.187 57.769L100.925 69.1814C101.079 71.6731 102.063 73.1188 103.601 74.257L110.984 79.6402C112.061 80.4092 112.43 81.3628 112.43 82.5933V125.075C112.43 127.505 113.937 128.797 115.936 128.797ZM121.074 70.2273C125.165 70.2273 128.456 66.8436 128.456 62.8754C128.456 58.7841 125.165 55.4619 121.074 55.4619C116.952 55.4619 113.722 58.7841 113.722 62.8754C113.722 66.9051 116.952 70.2273 121.074 70.2273Z" fill="#E2F3FF"/>
</svg>
