<svg width="16" height="5" viewBox="0 0 16 5" fill="none" xmlns="http://www.w3.org/2000/svg">
<path d="M0.65918 2.20215L6.58301 4.61035C7.05762 4.8125 7.51465 4.99707 7.96289 4.99707C8.41113 4.99707 8.87695 4.8125 9.34277 4.61035L15.2666 2.20215C15.6621 2.03516 15.9258 1.69238 15.9258 1.28809C15.9258 0.628906 15.4424 0.171875 14.8447 0.171875C14.5283 0.171875 14.1064 0.356445 13.7988 0.479492L7.96289 2.84375L2.12695 0.479492C1.81934 0.356445 1.40625 0.171875 1.08105 0.171875C0.483398 0.171875 0 0.628906 0 1.28809C0 1.69238 0.263672 2.03516 0.65918 2.20215Z" fill="#D9D9D9"/>
</svg>
