<svg width="170" height="220" viewBox="0 0 170 220" fill="none" xmlns="http://www.w3.org/2000/svg">
<rect x="0.5" y="0.5" width="169" height="219" rx="7.5" stroke="#D9D9D9"/>
<path d="M100.115 118.549C100.039 118.567 99.9607 118.567 99.8852 118.549L71.1227 111.655C71.0422 111.636 70.9581 111.637 70.878 111.658L48.525 117.583C46.9139 118.024 45.4236 117.9 44.0542 117.209C42.6847 116.521 42 115.597 42 114.439V68.1019C42 67.3848 42.3029 66.7504 42.9087 66.1988C43.5112 65.6471 44.3361 65.2334 45.3833 64.9576L70.885 59.0267C70.9606 59.0092 71.0393 59.0094 71.1148 59.0275L99.8773 65.9211C99.9578 65.9404 100.042 65.9394 100.122 65.9182L122.475 59.9929C124.086 59.5516 125.576 59.6752 126.946 60.3636C128.315 61.0543 129 61.9788 129 63.1372V109.474C129 110.191 128.697 110.826 128.091 111.377C127.489 111.929 126.664 112.343 125.617 112.618L100.115 118.549ZM94.5501 110.319C94.8645 110.395 95.1667 110.156 95.1667 109.833V72.137C95.1667 71.9057 95.0081 71.7047 94.7832 71.6508L76.4499 67.2567C76.1355 67.1814 75.8333 67.4197 75.8333 67.743V105.439C75.8333 105.67 75.9919 105.871 76.2168 105.925L94.5501 110.319ZM104.833 109.84C104.833 110.161 105.132 110.399 105.445 110.328L118.945 107.246C119.172 107.194 119.333 106.992 119.333 106.759V68.5846C119.333 68.2569 119.023 68.0178 118.706 68.101L105.206 71.6447C104.987 71.7024 104.833 71.9011 104.833 72.1284V109.84ZM51.6667 108.991C51.6667 109.319 51.9766 109.558 52.2936 109.475L65.7936 105.931C66.0134 105.874 66.1667 105.675 66.1667 105.448V67.736C66.1667 67.4149 65.8684 67.177 65.5554 67.2485L52.0554 70.33C51.828 70.3819 51.6667 70.5842 51.6667 70.8175V108.991Z" fill="#E5E6EA"/>
<path d="M66 77.5C66.6875 77.5 67.2762 77.255 67.7663 76.765C68.2554 76.2758 68.5 75.6875 68.5 75C68.5 74.3125 68.2554 73.7238 67.7663 73.2337C67.2762 72.7446 66.6875 72.5 66 72.5C65.3125 72.5 64.7242 72.7446 64.235 73.2337C63.745 73.7238 63.5 74.3125 63.5 75C63.5 75.6875 63.745 76.2758 64.235 76.765C64.7242 77.255 65.3125 77.5 66 77.5ZM66 90C62.6458 87.1458 60.1408 84.4946 58.485 82.0462C56.8283 79.5988 56 77.3333 56 75.25C56 72.125 57.0054 69.6354 59.0163 67.7812C61.0263 65.9271 63.3542 65 66 65C68.6458 65 70.9738 65.9271 72.9837 67.7812C74.9946 69.6354 76 72.125 76 75.25C76 77.3333 75.1721 79.5988 73.5163 82.0462C71.8596 84.4946 69.3542 87.1458 66 90Z" fill="#E2F3FF"/>
<path d="M89.4199 31.9862C88.6796 32.8317 88.4237 33.7754 88.4789 35.2631L89.2404 57.4393C89.2842 58.5369 89.7433 59.3463 90.3121 59.8443C90.8963 60.3558 91.7438 60.6905 92.8376 60.589L114.843 58.3474C116.454 58.1827 117.304 57.8946 118.017 57.0799C119.094 55.85 118.908 54.1393 117.709 53.0894L112.236 48.2975L112.573 47.9132C121.86 37.306 119.357 26.4238 108.197 16.6517C106.244 14.9423 104.503 14.884 103.561 15.9601C102.847 16.7749 102.449 17.757 103.046 19.3391C105.422 25.683 104.065 30.5514 99.1523 36.1624L98.8158 36.5467L93.3124 31.728C92.1133 30.6781 90.4698 30.7871 89.4199 31.9862Z" fill="#E2F3FF"/>
<path d="M60.7247 151.61V165.17H61.9247V151.61H60.7247ZM58.5797 156.98V158H61.1747V156.98H58.5797ZM57.7247 151.895V164.495H58.9097V151.895H57.7247ZM50.8847 153.17V161.54H56.0597V153.17H50.8847ZM54.8897 154.16V160.55H52.0547V154.16H54.8897ZM67.6385 153.845V154.43C67.6385 156.275 66.2435 157.925 64.2185 158.585L64.8185 159.545C67.1135 158.795 68.6585 156.815 68.6585 154.43V153.845H67.6385ZM67.8485 153.845V154.43C67.8485 156.695 69.4385 158.54 71.7485 159.23L72.3185 158.24C70.3085 157.67 68.8685 156.14 68.8685 154.43V153.845H67.8485ZM64.5485 153.275V154.28H71.9285V153.275H64.5485ZM67.6385 151.61V153.71H68.8685V151.61H67.6385ZM73.8185 151.625V159.92H75.0785V151.625H73.8185ZM70.5635 160.205C67.7285 160.205 66.0185 161.105 66.0185 162.665C66.0185 164.24 67.7285 165.14 70.5635 165.14C73.3985 165.14 75.1235 164.24 75.1235 162.665C75.1235 161.105 73.3985 160.205 70.5635 160.205ZM70.5635 161.195C72.6335 161.195 73.8785 161.735 73.8785 162.665C73.8785 163.625 72.6335 164.165 70.5635 164.165C68.5085 164.165 67.2635 163.625 67.2635 162.665C67.2635 161.735 68.5085 161.195 70.5635 161.195ZM84.4638 152.315V153.695C84.4638 155.765 83.1438 157.595 81.1038 158.345L81.7638 159.35C84.0288 158.465 85.4988 156.305 85.4988 153.695V152.315H84.4638ZM84.6888 152.315V153.785C84.6888 156.14 86.1738 158.15 88.3488 158.96L89.0088 157.985C87.0588 157.31 85.7088 155.615 85.7088 153.785V152.315H84.6888ZM90.4488 151.61V159.83H91.6938V151.61H90.4488ZM91.3488 155.105V156.155H93.7038V155.105H91.3488ZM87.3738 160.205C84.5988 160.205 82.9188 161.12 82.9188 162.68C82.9188 164.24 84.5988 165.14 87.3738 165.14C90.1488 165.14 91.8288 164.24 91.8288 162.68C91.8288 161.12 90.1488 160.205 87.3738 160.205ZM87.3738 161.195C89.3838 161.195 90.6138 161.735 90.6138 162.68C90.6138 163.625 89.3838 164.165 87.3738 164.165C85.3638 164.165 84.1338 163.625 84.1338 162.68C84.1338 161.735 85.3638 161.195 87.3738 161.195ZM105.043 151.61V165.17H106.243V151.61H105.043ZM102.748 157.04V158.075H105.358V157.04H102.748ZM101.968 151.91V164.48H103.138V151.91H101.968ZM95.2177 160.79V161.825H96.1027C98.1427 161.825 99.5077 161.765 101.128 161.42L101.008 160.385C99.4327 160.715 98.0827 160.79 96.1027 160.79H95.2177ZM95.2177 153.26V161.255H96.4477V154.28H100.258V153.26H95.2177ZM117.461 151.595V165.17H118.721V151.595H117.461ZM118.376 157.1V158.135H120.881V157.1H118.376ZM113.996 153.065V153.26C113.996 156.845 112.121 159.74 108.371 161.645L109.061 162.605C113.441 160.4 115.211 156.92 115.211 153.065H113.996ZM109.001 153.065V154.085H114.641V153.065H109.001ZM38.5432 171.61V185.17H39.7432V171.61H38.5432ZM33.6082 176.47V177.505H36.2032V176.47H33.6082ZM35.8282 171.925V184.48H36.9982V171.925H35.8282ZM30.9982 173.71V175.435C30.9982 177.925 29.9482 180.4 28.0582 181.54L28.8232 182.47C30.8182 181.21 31.9582 178.405 31.9582 175.435V173.71H30.9982ZM31.2532 173.71V175.435C31.2532 178.27 32.3482 180.94 34.3282 182.14L35.0932 181.225C33.2332 180.145 32.2132 177.79 32.2132 175.435V173.71H31.2532ZM28.4332 173.185V174.22H34.6282V173.185H28.4332ZM50.8835 172.945V173.515C50.8835 175.3 48.5585 176.86 46.1735 177.205L46.6535 178.195C49.3835 177.73 51.9635 175.945 51.9635 173.515V172.945H50.8835ZM51.1985 172.945V173.515C51.1985 175.945 53.7635 177.73 56.5085 178.195L56.9735 177.205C54.6035 176.86 52.2635 175.3 52.2635 173.515V172.945H51.1985ZM50.9285 179.995V185.17H52.1585V179.995H50.9285ZM45.4535 179.335V180.355H57.7085V179.335H45.4535ZM46.5935 172.45V173.455H56.5235V172.45H46.5935ZM59.0123 182.38V183.415H71.2973V182.38H59.0123ZM64.4723 179.095V182.725H65.7023V179.095H64.4723ZM64.4423 172.51V173.56C64.4423 175.795 61.8773 177.79 59.4923 178.225L60.0173 179.26C62.7473 178.69 65.5223 176.455 65.5223 173.56V172.51H64.4423ZM64.6673 172.51V173.56C64.6673 176.455 67.4423 178.69 70.1723 179.26L70.7123 178.225C68.3273 177.79 65.7473 175.81 65.7473 173.56V172.51H64.6673ZM72.5712 182.47V183.505H84.8562V182.47H72.5712ZM78.0612 179.56V182.905H79.3062V179.56H78.0612ZM74.0562 172.615V173.62H82.1112V175.72H74.1012V179.44H75.3312V176.725H83.3412V172.615H74.0562ZM74.1012 178.915V179.935H83.6562V178.915H74.1012ZM93.2065 178.45V181.69H94.4515V178.45H93.2065ZM93.8215 172.48C91.7365 172.48 90.2365 173.785 90.2365 175.675C90.2365 177.565 91.7365 178.87 93.8215 178.87C95.9065 178.87 97.4065 177.565 97.4065 175.675C97.4065 173.785 95.9065 172.48 93.8215 172.48ZM93.8215 173.545C95.2015 173.545 96.1915 174.415 96.1915 175.675C96.1915 176.935 95.2015 177.805 93.8215 177.805C92.4415 177.805 91.4515 176.935 91.4515 175.675C91.4515 174.415 92.4415 173.545 93.8215 173.545ZM98.9515 171.61V185.17H100.196V171.61H98.9515ZM99.8365 177.19V178.24H102.341V177.19H99.8365ZM89.8015 182.245C92.1715 182.245 95.3365 182.215 98.2015 181.735L98.0965 180.805C95.3365 181.18 92.0665 181.195 89.6215 181.21L89.8015 182.245ZM108.775 172.945V173.515C108.775 175.3 106.45 176.86 104.065 177.205L104.545 178.195C107.275 177.73 109.855 175.945 109.855 173.515V172.945H108.775ZM109.09 172.945V173.515C109.09 175.945 111.655 177.73 114.4 178.195L114.865 177.205C112.495 176.86 110.155 175.3 110.155 173.515V172.945H109.09ZM108.82 179.995V185.17H110.05V179.995H108.82ZM103.345 179.335V180.355H115.6V179.335H103.345ZM104.485 172.45V173.455H114.415V172.45H104.485ZM122.244 176.455V177.49H124.839V176.455H122.244ZM119.709 172.885V175.465C119.709 177.79 118.599 180.22 116.739 181.315L117.519 182.26C119.499 181.045 120.684 178.3 120.684 175.465V172.885H119.709ZM119.949 172.885V175.42C119.949 178.06 121.044 180.76 122.994 181.96L123.714 180.985C121.929 179.905 120.909 177.595 120.909 175.42V172.885H119.949ZM127.224 171.61V185.17H128.424V171.61H127.224ZM124.479 171.895V184.495H125.649V171.895H124.479ZM133.463 178.585V182.65H134.693V178.585H133.463ZM138.473 178.585V182.65H139.718V178.585H138.473ZM130.463 182.41V183.445H142.748V182.41H130.463ZM136.583 172.465C133.703 172.465 131.648 173.83 131.648 175.96C131.648 178.075 133.703 179.44 136.583 179.44C139.448 179.44 141.503 178.075 141.503 175.96C141.503 173.83 139.448 172.465 136.583 172.465ZM136.583 173.455C138.758 173.455 140.303 174.445 140.303 175.96C140.303 177.46 138.758 178.45 136.583 178.45C134.408 178.45 132.848 177.46 132.848 175.96C132.848 174.445 134.408 173.455 136.583 173.455Z" fill="#011E5F"/>
</svg>
